<?xml version="1.0" encoding="utf-8"?>
<!-- Generator: Adobe Illustrator 18.0.0, SVG Export Plug-In . SVG Version: 6.00 Build 0)  -->
<!DOCTYPE svg PUBLIC "-//W3C//DTD SVG 1.1//EN" "http://www.w3.org/Graphics/SVG/1.1/DTD/svg11.dtd">
<svg version="1.1" id="Layer_1" xmlns="http://www.w3.org/2000/svg" xmlns:xlink="http://www.w3.org/1999/xlink" x="0px" y="0px"
	 viewBox="0 0 384 261.7" enable-background="new 0 0 384 261.7" xml:space="preserve">
<g>
	<g>
		<path fill="#FFF9E9" d="M85.6,93.6c-0.1-0.7-0.1-1.3,0.2-1.9c0.3-0.6,0.7-1.1,1.3-1.6c0.6-0.5,1.3-0.9,2.1-1.2
			c0.8-0.3,1.7-0.6,2.7-0.9c0.3-3.1,0.7-6.1,1.2-9.1c0.4-3,0.9-5.7,1.4-8.2c-0.4,0.1-0.7,0.1-1.1,0.2c-0.4,0.1-0.7,0.1-1.1,0.2
			c-1.8,0.4-3.2,0.9-4.3,1.5c-1.1,0.6-1.9,1.2-2.4,1.9c-0.5,0.7-0.8,1.5-0.9,2.4c-0.1,0.9,0.1,1.9,0.3,3.1c0.2,0.8,0.4,1.6,0.7,2.2
			c0.3,0.6,0.6,1.3,1.1,2c-1.3,0.1-2.4-0.2-3.1-0.8c-0.7-0.6-1.3-1.5-1.5-2.7c-0.3-1.4-0.3-2.9,0.2-4.2c0.5-1.4,1.3-2.7,2.5-3.9
			c1.2-1.2,2.6-2.2,4.4-3.2c1.7-0.9,3.6-1.6,5.7-2.1c2-0.5,3.9-0.8,5.7-0.9c1.9-0.2,3.7-0.5,5.5-0.9c1.5-0.4,2.8-0.9,4-1.5
			c-1,1.9-1.9,3.2-2.7,3.9c-0.8,0.7-1.7,1.2-2.6,1.5c-0.8,0.2-2,0.4-3.4,0.5c-1.4,0.1-3,0.3-4.7,0.5c-0.1,1-0.3,2.2-0.4,3.5
			c-0.1,1.3-0.3,2.7-0.4,4.2c-0.1,1.5-0.3,3-0.4,4.6c-0.1,1.6-0.2,3.2-0.3,4.7c1.9-0.3,3.7-0.6,5.4-0.8c1.7-0.2,3.2-0.4,4.5-0.7
			c-0.2,0.5-0.4,0.9-0.7,1.3c-0.3,0.3-0.8,0.6-1.5,0.9c-0.7,0.3-1.7,0.6-2.9,1c-1.2,0.4-2.9,0.8-4.9,1.3l-0.5,8.8
			c-0.2,4-0.2,7.2-0.1,9.6c0.2,2.4,0.4,4.2,0.7,5.6c-0.9,0.1-1.6,0.1-2.1,0c-0.6-0.1-1-0.3-1.4-0.6c-0.3-0.3-0.6-0.7-0.8-1.2
			c-0.2-0.5-0.4-1-0.5-1.7c-0.2-1-0.4-2.2-0.3-3.6c0-1.4,0.1-3,0.2-4.7c0.1-1.7,0.3-3.5,0.5-5.4c0.2-1.9,0.4-3.8,0.7-5.7
			c-0.6,0.2-1.3,0.5-1.9,0.7c-0.6,0.2-1.4,0.5-2.2,0.8L85.6,93.6z"/>
		<path fill="#FFF9E9" d="M111.2,105.3c0.3-0.6,0.6-1.5,0.9-2.8c0.3-1.3,0.7-2.9,1-4.6c0.3-1.8,0.6-3.7,0.8-5.7s0.4-4.1,0.5-6.1
			c-0.5-0.3-0.7-0.7-0.9-1.2c-0.1-0.6-0.2-1.1-0.1-1.6c0.1-0.5,0.2-1,0.4-1.3c0.2-0.4,0.4-0.7,0.6-1c0.2-0.2,0.4-0.4,0.5-0.4
			c0.4-0.1,0.7,0,0.8,0.4c0.1,0.3,0.2,0.6,0.3,0.8c0,0.1,0,0.3,0,0.5c0,0.2,0,0.4-0.1,0.7c0,0.2-0.1,0.5-0.1,0.7c0,0.2,0,0.3,0,0.4
			c0.1,0.5,0.5,0.9,1.2,1.2c0.7,0.3,1.5,0.6,2.3,1c0.8,0.4,1.6,0.9,2.4,1.5c0.8,0.6,1.3,1.5,1.6,2.7c0.2,0.8,0.3,1.7,0.2,2.7
			c-0.1,0.9-0.2,1.9-0.3,2.7c-0.1,0.9-0.3,1.7-0.4,2.5c-0.1,0.8-0.1,1.5,0,2.1c0.2,0.7,0.4,1.1,0.8,1.2c0.4,0.1,0.8,0.2,1.2,0.1
			c0.9-0.2,1.7-0.7,2.6-1.5c0.8-0.8,1.6-1.7,2.2-2.7c0.7-1,1.2-2.1,1.7-3.2c0.5-1.1,0.8-2.1,0.9-3l0.9,0.4c-0.2,1.3-0.6,2.6-1.2,4
			s-1.2,2.6-2,3.8c-0.8,1.2-1.7,2.1-2.7,3c-1,0.8-2.1,1.4-3.3,1.7c-1.3,0.3-2.3,0.2-3.2-0.3c-0.9-0.5-1.4-1.3-1.7-2.3
			c-0.2-0.8-0.2-1.7-0.1-2.7c0.1-1,0.2-2,0.4-3c0.2-1,0.3-2,0.4-2.9c0.1-0.9,0.1-1.8-0.1-2.5c-0.1-0.6-0.4-1.1-0.6-1.5
			s-0.6-0.7-1-0.9c-0.4-0.2-0.8-0.4-1.2-0.6c-0.4-0.2-0.8-0.3-1.2-0.5c-0.2,2.1-0.4,4.1-0.6,6.2c-0.2,2-0.5,3.9-0.8,5.7
			c-0.3,1.8-0.6,3.3-0.9,4.6c-0.3,1.3-0.6,2.3-0.9,2.9L111.2,105.3z"/>
		<path fill="#FFF9E9" d="M146,79.5c0.3,1.4,0.2,2.8-0.3,4.3c-0.5,1.4-1.3,2.8-2.4,4.1s-2.4,2.4-3.9,3.4c-1.5,1-3,1.8-4.5,2.3
			c0,0.4,0,0.8,0.1,1.1c0,0.3,0.1,0.7,0.2,1c0.1,0.6,0.3,1.1,0.6,1.6c0.3,0.5,0.6,1,1.1,1.3c0.4,0.4,1,0.6,1.6,0.8
			c0.6,0.1,1.4,0.1,2.2-0.1c2-0.5,3.8-1.6,5.3-3.4c1.6-1.8,2.8-3.9,3.8-6.3c0-1.6,0.2-3.3,0.7-5c0.5-1.7,1.2-3.4,2.1-4.9
			c0.9-1.5,2-2.8,3.2-3.9c1.2-1.1,2.5-1.8,4-2.2c0.8-0.2,1.7-0.2,2.5,0.1c0.8,0.3,1.4,1.1,1.7,2.4c0.3,1.4,0.3,2.8-0.2,4.1
			c-0.5,1.3-1.2,2.6-2.2,3.7c-1,1.1-2.2,2.2-3.6,3.1c-1.4,0.9-2.9,1.6-4.5,2.2c0,0.4,0,0.8,0.1,1.1c0,0.3,0.1,0.7,0.2,1
			c0.1,0.6,0.3,1.1,0.6,1.7c0.3,0.6,0.6,1,1,1.4c0.4,0.4,1,0.7,1.6,0.8c0.6,0.2,1.4,0.1,2.2-0.1c1.2-0.3,2.3-0.8,3.4-1.7
			c1.1-0.8,2-1.9,2.9-3c0.9-1.2,1.7-2.5,2.3-4c0.7-1.4,1.2-2.9,1.6-4.4l0.8,0.3c-0.3,1.8-0.9,3.6-1.6,5.2c-0.8,1.6-1.7,3.1-2.7,4.4
			c-1,1.3-2.2,2.4-3.5,3.3c-1.3,0.9-2.6,1.5-4,1.8c-1.1,0.3-2.1,0.3-3,0.1c-0.9-0.2-1.7-0.5-2.4-1c-0.7-0.5-1.3-1.1-1.8-1.8
			c-0.5-0.7-0.8-1.6-1-2.4l-0.1-0.3c-1.1,2.5-2.5,4.6-4.3,6.2c-1.8,1.7-3.7,2.8-5.8,3.3c-2.2,0.5-4.1,0.3-5.5-0.6
			c-1.4-1-2.3-2.3-2.8-4.2c-0.3-1.1-0.4-2.3-0.3-3.6c0.1-1.3,0.3-2.6,0.7-4c0.4-1.3,0.9-2.7,1.6-3.9c0.6-1.3,1.4-2.5,2.3-3.5
			c0.9-1.1,1.8-2,2.8-2.7s2-1.3,3.1-1.5c0.8-0.2,1.7-0.2,2.5,0.1C145.1,77.3,145.7,78.1,146,79.5z M142,78.7
			c-0.9,0.2-1.7,0.8-2.6,1.7c-0.8,0.9-1.6,2-2.2,3.3c-0.7,1.3-1.2,2.7-1.6,4.2c-0.4,1.5-0.6,3-0.7,4.4c0.9-0.6,1.9-1.3,3-2.3
			c1.1-0.9,2.1-2,3-3.2c0.9-1.2,1.7-2.4,2.2-3.6c0.5-1.3,0.6-2.5,0.3-3.7c-0.1-0.4-0.2-0.7-0.4-0.9C142.9,78.6,142.5,78.5,142,78.7z
			 M159.9,75.2c-0.9,0.2-1.7,0.7-2.5,1.6c-0.8,0.8-1.4,1.8-2,3c-0.6,1.2-1,2.5-1.4,3.9c-0.4,1.4-0.6,2.8-0.6,4.2
			c0.9-0.6,1.9-1.3,3-2.1c1.1-0.8,2-1.8,2.9-2.8c0.9-1,1.5-2.1,2-3.2c0.5-1.1,0.6-2.3,0.3-3.5c-0.1-0.4-0.3-0.7-0.5-1
			C160.8,75.1,160.4,75.1,159.9,75.2z"/>
		<path fill="#FFF9E9" d="M86.3,123.6c0.4,1.8,0.4,3.4-0.1,4.9c-0.5,1.5-1.2,2.8-2.3,3.9c-1,1.1-2.2,2.1-3.6,2.9
			c-1.4,0.8-2.8,1.5-4.1,2.1c2.8-0.5,5.1-0.6,6.9-0.4c1.8,0.2,3.3,0.6,4.3,1.3c1.1,0.7,1.9,1.4,2.4,2.3c0.5,0.9,0.9,1.8,1.1,2.7
			c0.4,1.8,0.4,3.6,0,5.2c-0.4,1.7-1.2,3.3-2.2,4.8c-1,1.5-2.3,2.9-3.8,4.2c-1.5,1.3-3,2.5-4.7,3.5s-3.3,1.9-4.9,2.6
			c-1.6,0.7-3.1,1.2-4.5,1.6c-2,0.5-3.6,0.5-4.8,0.1c-1.2-0.4-2-1.4-2.4-3c0-0.1,0.1-0.2,0.2-0.2c0.1,0,0.3,0,0.5,0
			c0.2,0,0.5,0,0.9,0s0.9-0.1,1.5-0.2c0.6-0.1,1.4-0.3,2.4-0.5c3.2-0.8,6-1.8,8.5-3.2c2.5-1.4,4.6-2.9,6.3-4.6
			c1.7-1.7,2.9-3.5,3.6-5.3s0.9-3.6,0.5-5.3c-0.4-1.5-1.1-2.6-2.2-3.3c-1.1-0.7-2.4-1.1-3.8-1.3c-1.5-0.2-3-0.1-4.7,0.1
			c-1.7,0.2-3.3,0.5-4.9,0.9c-0.7,0.2-1.5,0.4-2.1,0.5c-0.7,0.2-1.4,0.4-2,0.5c-0.1,3.2-0.2,6.4-0.3,9.6c-0.1,3.2-0.2,6.3-0.4,9.4
			c-0.9,0.2-1.8,0.2-2.5-0.2c-0.8-0.4-1.2-0.9-1.4-1.7c-0.1-0.4-0.1-1-0.1-1.6c0-0.6,0.1-1.2,0.1-1.7c0-0.6,0.1-1.7,0.2-3.1
			c0.1-1.4,0.2-3.1,0.4-5c0.2-1.9,0.4-4,0.6-6.2c0.2-2.2,0.5-4.5,0.8-6.8s0.6-4.5,1-6.7c0.4-2.2,0.8-4.2,1.2-5.9
			c-1.1,0.5-2.1,1-2.9,1.6c-0.8,0.5-1.4,1-2,1.5c-0.5,0.5-1,0.9-1.3,1.2c-0.3,0.3-0.6,0.5-0.8,0.6c-0.3,0.1-0.7,0-1.2-0.3
			c-0.5-0.2-0.8-0.5-0.9-0.8c0.8-0.6,1.7-1.2,2.5-1.8c0.9-0.6,1.8-1.2,2.7-1.7c1-0.5,2-1,3.2-1.5c1.2-0.5,2.5-0.9,3.9-1.2
			c1.2-0.3,2.6-0.5,4.1-0.7c1.5-0.2,3-0.1,4.5,0.2c1.4,0.3,2.7,0.9,3.9,1.9C85,120.3,85.8,121.7,86.3,123.6z M71.8,119
			c-0.2,0-0.4,0.1-0.5,0.1c-0.2,0-0.3,0.1-0.5,0.2c-0.7,2.9-1.2,6.1-1.6,9.4c-0.4,3.3-0.6,6.8-0.8,10.3c2-0.6,4-1.3,5.9-2.2
			c1.9-0.9,3.6-1.9,5-3.2c1.4-1.2,2.5-2.7,3.2-4.3c0.7-1.6,0.8-3.4,0.3-5.5c-0.3-1.4-0.9-2.6-1.7-3.3c-0.8-0.8-1.6-1.4-2.6-1.7
			c-1-0.3-2.1-0.5-3.3-0.4C74.1,118.6,72.9,118.7,71.8,119z"/>
		<path fill="#FFF9E9" d="M108.9,138.6c0.2,0,0.4,0,0.6,0c0.3,0,0.5,0,0.8,0.1c0.3,0.1,0.5,0.1,0.7,0.2c0.2,0.1,0.3,0.3,0.4,0.5
			c0.1,0.3,0,0.8-0.2,1.5c-0.2,0.7-0.4,1.4-0.6,2.2c-0.2,0.8-0.4,1.6-0.6,2.5c-0.2,0.8-0.1,1.6,0,2.2c0.1,0.6,0.4,1.1,0.8,1.5
			c0.4,0.5,1,0.6,1.6,0.5c1-0.2,2.1-1.3,3.4-3.1c1.3-1.8,2.4-4.4,3.3-7.8l0.7,0.4c-0.2,1.7-0.6,3.2-1.2,4.6c-0.6,1.4-1.2,2.7-2,3.8
			c-0.8,1.1-1.6,2-2.5,2.8c-0.9,0.7-1.9,1.2-2.9,1.5c-1.4,0.3-2.5,0.2-3.3-0.5c-0.8-0.7-1.4-1.5-1.6-2.4c-0.1-0.4-0.2-1-0.2-1.6
			c-1.1,2.5-2.2,4.5-3.2,5.9c-1,1.4-2.2,2.2-3.6,2.6c-1.2,0.3-2.2,0.1-3.2-0.4c-1-0.6-1.6-1.6-2-3.2c-0.3-1.1-0.3-2.3-0.2-3.7
			c0.1-1.4,0.4-2.8,0.8-4.2c0.4-1.4,1-2.9,1.7-4.3c0.7-1.4,1.5-2.7,2.4-3.8c0.9-1.2,1.9-2.1,3-3c1.1-0.8,2.2-1.4,3.5-1.7
			c1.4-0.3,2.7-0.3,3.9,0.3s1.9,1.4,2.2,2.7c0.2,0.9,0.1,1.6-0.3,2.1c-0.4,0.5-1,0.8-1.8,1c0-0.7,0-1.4-0.2-2
			c-0.2-0.8-0.6-1.5-1.1-2c-0.6-0.5-1.3-0.6-2.3-0.4c-0.9,0.2-1.7,0.7-2.5,1.4c-0.8,0.7-1.5,1.6-2.1,2.7c-0.6,1.1-1.2,2.2-1.7,3.5
			c-0.5,1.3-0.9,2.6-1.1,3.9c-0.3,1.3-0.5,2.5-0.5,3.7c0,1.2,0,2.2,0.3,3.1c0.3,1.4,1,2,2,1.8c0.8-0.2,1.7-0.9,2.6-2
			c0.9-1.1,1.7-2.5,2.4-4c0.8-1.5,1.5-3.1,2.1-4.7C107.9,141.1,108.5,139.7,108.9,138.6z"/>
		<path fill="#FFF9E9" d="M127.7,126.7c0.8-0.2,1.4-0.2,2-0.1c0.6,0.1,1,0.3,1.4,0.7c0.4,0.3,0.7,0.7,1,1.2c0.2,0.5,0.4,0.9,0.5,1.4
			c0.3,1.1,0.2,2.1-0.1,3c-0.3,0.9-0.9,1.5-1.7,1.7c-0.6,0.2-1.2,0-1.8-0.4c0.5-0.4,0.8-1.1,1-2.1c0.2-1,0.2-1.9,0-2.7
			c-0.1-0.4-0.3-0.8-0.5-1c-0.2-0.2-0.6-0.2-1.1-0.1c-1,0.2-1.9,0.9-2.8,2.1c-0.9,1.2-1.6,2.5-2.1,4.1c-0.6,1.6-0.9,3.2-1.1,4.9
			c-0.2,1.7-0.1,3.2,0.2,4.6c0.1,0.6,0.3,1.1,0.6,1.6c0.3,0.5,0.6,1,1,1.3c0.4,0.4,0.9,0.6,1.5,0.8s1.3,0.1,2.1-0.1
			c1.1-0.3,2.2-0.8,3.2-1.5c1-0.7,1.9-1.7,2.8-2.8c0.8-1.1,1.6-2.4,2.1-3.9c0.6-1.4,1-3,1.2-4.7l0.9,0.4c-0.2,1.8-0.7,3.5-1.4,5.2
			c-0.7,1.7-1.5,3.2-2.5,4.5c-1,1.3-2.1,2.4-3.3,3.3c-1.2,0.9-2.5,1.5-3.8,1.8c-1.8,0.4-3.4,0.2-4.8-0.7c-1.5-0.9-2.5-2.5-3.1-4.9
			c-0.4-1.8-0.5-3.7-0.2-5.7s0.9-3.8,1.7-5.4s1.9-3.1,3.1-4.3C125,127.8,126.3,127,127.7,126.7z"/>
		<path fill="#FFF9E9" d="M147.2,133.5c0.4-0.1,1-0.3,1.7-0.7c0.7-0.4,1.5-0.9,2.1-1.5c0.7-0.6,1.2-1.3,1.7-2.1
			c0.4-0.8,0.5-1.7,0.3-2.6c-0.2-0.8-0.6-1.3-1.3-1.6c-0.7-0.3-1.4-0.4-2.1-0.2c-1.1,0.3-2,0.9-2.8,1.9c-0.7,1-1.4,2.1-1.9,3.5
			c-0.5,1.3-0.9,2.8-1.2,4.3c-0.3,1.5-0.5,2.9-0.7,4.2c-0.2,1.3-0.3,2.4-0.3,3.4c-0.1,1-0.1,1.6-0.2,1.8c-0.1,0.4-0.3,0.7-0.6,0.9
			c-0.3,0.3-0.7,0.4-1,0.5c-0.5,0.1-0.9,0.1-1.2-0.2c-0.3-0.2-0.6-0.6-0.9-1c-0.2-0.5-0.5-1-0.6-1.6c-0.2-0.6-0.3-1.2-0.5-1.9
			c-0.5-1.9-0.7-4.2-0.6-6.9c0-2.7,0.3-5.5,0.6-8.4c0.4-2.9,0.9-5.8,1.5-8.7c0.6-2.9,1.3-5.5,2.1-7.8c0.8-2.3,1.5-4.2,2.3-5.7
			c0.8-1.5,1.5-2.3,2.2-2.5c0.5-0.1,1,0.1,1.5,0.8c0.5,0.6,0.8,1.4,1.1,2.4c0.3,1.3,0.4,2.8,0.2,4.5c-0.2,1.7-0.6,3.4-1.2,5.2
			c-0.6,1.8-1.4,3.6-2.5,5.3c-1,1.8-2.3,3.3-3.6,4.7c-0.5,3.3-0.7,6.4-0.6,9.4c0.1,3,0.3,5.4,0.8,7.3c0.2-1.6,0.6-3.4,1-5.4
			c0.4-2,1-3.9,1.6-5.7c0.7-1.8,1.5-3.4,2.5-4.8c1-1.4,2.2-2.2,3.6-2.6c1.4-0.3,2.6-0.1,3.8,0.6c1.2,0.7,1.9,1.8,2.3,3.1
			c0.3,1.2,0.2,2.3-0.2,3.2c-0.4,1-1,1.8-1.7,2.5c-0.7,0.7-1.5,1.3-2.3,1.7c-0.8,0.4-1.5,0.7-2.1,0.9c0.1,0.3,0.3,0.8,0.7,1.6
			c0.4,0.7,0.8,1.5,1.4,2.2c0.5,0.7,1.2,1.3,1.8,1.8c0.7,0.5,1.4,0.7,2.1,0.5c0.8-0.2,1.5-0.6,2.1-1.2c0.6-0.6,1.2-1.4,1.7-2.4
			c0.5-1,0.9-2.1,1.3-3.4c0.4-1.3,0.7-2.6,0.9-4l0.7,0.4c-0.1,1.5-0.3,2.9-0.7,4.4c-0.4,1.4-0.9,2.8-1.6,4c-0.6,1.2-1.4,2.2-2.3,3
			c-0.9,0.8-1.8,1.4-2.7,1.6c-1.1,0.3-2,0.1-2.9-0.4c-0.9-0.5-1.7-1.3-2.4-2.2c-0.7-0.9-1.3-1.9-1.7-3
			C147.7,135.3,147.4,134.3,147.2,133.5z M146.5,104.9c-0.3,0.1-0.6,0.6-1.1,1.5c-0.4,0.9-0.8,2.1-1.3,3.5c-0.5,1.5-0.9,3.1-1.4,5
			c-0.4,1.9-0.8,3.9-1.2,5.9c1-1.3,1.9-2.8,2.6-4.3c0.7-1.5,1.3-3,1.8-4.4c0.4-1.4,0.7-2.7,0.9-4c0.1-1.2,0.1-2.2,0-2.9
			C146.7,105,146.6,104.9,146.5,104.9z"/>
		<path fill="#FFF9E9" d="M175.4,117.7c-0.5-0.5-1.3-0.6-2.4-0.3c-1.4,0.3-2.7,1.1-3.9,2.3c-1.1,1.2-2.1,2.6-2.8,4.1
			c-0.7,1.5-1.2,3.1-1.5,4.7c-0.3,1.6-0.2,3,0,4.1c0.2,0.9,0.5,1.5,1,1.9c0.5,0.4,1,0.5,1.6,0.4c0.5-0.1,1.1-0.5,1.6-1
			c0.6-0.5,1.1-1.2,1.7-2.1c0.6-0.8,1.1-1.8,1.6-2.8c0.5-1.1,1-2.2,1.5-3.3l0-3.1c0-0.3,0-0.6,0.1-1c0.1-0.4,0.2-0.7,0.3-1
			c0.2-0.3,0.4-0.6,0.7-0.9c0.3-0.3,0.6-0.5,1.1-0.6c0.3-0.1,0.7-0.1,1.2-0.1c0.1,0.4,0.2,1.2,0.2,2.3c0,1.1,0,2.3,0,3.8
			c0,1.5-0.1,3-0.3,4.8c-0.1,1.7-0.3,3.5-0.6,5.3c0.8-0.7,1.5-1.4,2.3-2.2c0.8-0.8,1.4-1.8,2-2.7c0.6-1,1.1-2,1.6-3.1
			c0.4-1.1,0.7-2.2,0.9-3.4l0.9,0.4c-0.1,1.4-0.5,2.7-1,4c-0.5,1.3-1.2,2.5-1.9,3.6c-0.7,1.1-1.6,2.1-2.4,3
			c-0.9,0.9-1.7,1.7-2.4,2.3c-0.3,2.1-0.7,4-1.1,5.9c-0.4,1.8-1,3.5-1.6,4.9c-0.6,1.4-1.3,2.6-2.1,3.5c-0.8,0.9-1.7,1.5-2.7,1.8
			c-0.8,0.2-1.6,0.1-2.4-0.2c-0.8-0.3-1.3-1.1-1.6-2.2c-0.3-1.1-0.2-2.2,0.3-3.3c0.5-1.1,1.1-2.2,2-3.2c0.9-1.1,1.9-2.1,3-3
			c1.1-1,2.2-1.9,3.2-2.8c0.2-1.4,0.4-2.9,0.5-4.5c0.1-1.6,0.2-3.4,0.2-5.3c-0.9,2.4-2,4.4-3.2,6.1c-1.2,1.7-2.6,2.8-4.1,3.1
			c-1.3,0.3-2.5,0.1-3.4-0.7c-1-0.8-1.6-2-2-3.6c-0.5-1.9-0.4-3.9,0.1-5.8c0.5-2,1.4-3.8,2.6-5.4c1.2-1.7,2.5-3.1,4-4.3
			c1.5-1.2,3-2,4.5-2.3c1.1-0.3,1.9-0.3,2.4,0c0.5,0.2,0.9,0.6,1,1.1c0.1,0.3,0,0.6-0.1,0.8C175.6,117.5,175.5,117.7,175.4,117.7z
			 M168.2,151.2c0.4-0.1,0.8-0.4,1.2-0.8s0.9-1.2,1.3-2.1c0.4-0.9,0.8-2.1,1.2-3.5c0.4-1.4,0.8-3.1,1.1-5c-1,0.8-1.9,1.6-2.8,2.5
			c-0.9,0.8-1.6,1.6-2.2,2.5s-1.1,1.7-1.4,2.5c-0.3,0.8-0.4,1.6-0.2,2.4c0.1,0.6,0.4,1,0.7,1.3C167.5,151.2,167.8,151.3,168.2,151.2
			z"/>
		<path fill="#FFF9E9" d="M182.9,125.7c0.3-1.1,0.6-2.6,1-4.7c0.4-2,0.7-4.3,0.9-6.9c-0.5-0.3-0.7-0.7-0.9-1.2
			c-0.1-0.6-0.2-1.1-0.1-1.6c0.1-0.5,0.2-1,0.4-1.3c0.2-0.4,0.4-0.7,0.6-1c0.2-0.2,0.4-0.4,0.5-0.4c0.4-0.1,0.7,0,0.8,0.4
			c0.1,0.3,0.2,0.6,0.3,0.8c0,0.1,0,0.3,0,0.5c0,0.2,0,0.4-0.1,0.7c0,0.2-0.1,0.5-0.1,0.7c0,0.2,0,0.3,0,0.4
			c0.1,0.5,0.5,0.9,1.2,1.2c0.7,0.3,1.5,0.6,2.3,1c0.8,0.4,1.6,0.9,2.4,1.5c0.8,0.6,1.3,1.5,1.6,2.7c0.2,0.8,0.3,1.7,0.2,2.7
			c-0.1,0.9-0.2,1.9-0.3,2.7c-0.1,0.9-0.3,1.7-0.4,2.5c-0.1,0.8-0.1,1.5,0,2.1c0.2,0.7,0.4,1.1,0.8,1.2c0.4,0.1,0.8,0.2,1.2,0.1
			c0.9-0.2,1.7-0.7,2.6-1.5c0.8-0.8,1.6-1.7,2.2-2.7c0.7-1,1.2-2.1,1.7-3.2c0.5-1.1,0.8-2.1,0.9-3l0.9,0.4c-0.2,1.3-0.6,2.6-1.2,4
			c-0.6,1.4-1.2,2.6-2,3.8c-0.8,1.2-1.7,2.1-2.7,3c-1,0.8-2.1,1.4-3.3,1.7c-1.3,0.3-2.3,0.2-3.2-0.3c-0.9-0.5-1.4-1.3-1.7-2.3
			c-0.2-0.8-0.2-1.7-0.1-2.7c0.1-1,0.2-2,0.4-3c0.2-1,0.3-2,0.4-2.9c0.1-0.9,0.1-1.8-0.1-2.5c-0.1-0.6-0.4-1.1-0.6-1.5
			s-0.6-0.7-1-0.9c-0.4-0.2-0.8-0.4-1.2-0.6c-0.4-0.2-0.8-0.3-1.2-0.5c-0.2,1.2-0.4,2.4-0.5,3.6s-0.4,2.3-0.6,3.3
			c-0.2,1-0.4,2-0.6,2.8c-0.2,0.9-0.4,1.6-0.6,2.1L182.9,125.7z"/>
		<path fill="#FFF9E9" d="M218,121.1c-1,0.2-1.9,0.3-2.8,0.1c-0.9,2-1.9,3.7-3.1,5.1c-1.2,1.5-2.5,2.4-3.9,2.7
			c-1.6,0.4-2.8,0.2-3.7-0.7c-0.9-0.8-1.5-1.9-1.9-3.3c-0.3-1.1-0.4-2.4-0.3-3.7c0.1-1.3,0.3-2.6,0.6-3.7s0.8-2.2,1.4-3.1
			c0.6-0.9,1.3-1.4,2.1-1.6c0.3-0.1,0.7-0.1,1.2,0c-0.3,0.4-0.5,1-0.8,1.9c-0.3,0.9-0.5,1.9-0.6,3c-0.2,1.1-0.3,2.2-0.3,3.2
			s0,1.9,0.2,2.6c0.3,1.1,0.6,1.9,1.1,2.3c0.5,0.4,1,0.5,1.6,0.4c0.8-0.2,1.6-0.8,2.5-1.9c0.9-1.1,1.7-2.4,2.4-3.9
			c-1.3-0.6-2.4-1.5-3.2-2.8c-0.9-1.2-1.5-2.6-1.8-4c-0.2-0.9-0.3-1.8-0.3-2.7c0-0.9,0.2-1.7,0.5-2.5c0.3-0.8,0.7-1.4,1.3-2
			s1.3-0.9,2.2-1.1c1.5-0.4,2.6-0.2,3.3,0.5c0.7,0.7,1.2,1.6,1.5,2.9c0.3,1.4,0.4,3.1,0.1,5c-0.3,1.9-0.8,3.8-1.4,5.7
			c0.8,0.2,1.5,0.2,2.2,0c0.4-0.1,0.9-0.3,1.4-0.5c0.5-0.3,1-0.6,1.5-1.1c0.5-0.4,0.9-1,1.3-1.6c0.4-0.6,0.6-1.4,0.8-2.2l0.8,0.4
			c-0.2,1-0.4,1.8-0.9,2.5c-0.4,0.7-0.9,1.4-1.4,1.9c-0.5,0.5-1.1,1-1.7,1.3C219.2,120.7,218.6,120.9,218,121.1z M211,113.4
			c0.3,1.1,0.7,2.1,1.2,3.1c0.6,1,1.3,1.8,2.1,2.4c0.6-1.6,1-3.2,1.3-4.8s0.2-3.1-0.1-4.5c-0.3-1.1-0.6-1.8-1-2.2
			c-0.4-0.4-0.9-0.6-1.4-0.5c-0.4,0.1-0.7,0.3-1.1,0.7c-0.3,0.4-0.6,0.9-0.8,1.5c-0.2,0.6-0.3,1.2-0.4,2
			C210.7,111.8,210.8,112.6,211,113.4z"/>
		<path fill="#FFF9E9" d="M235.7,104.6c0.2,0,0.4,0,0.7,0c0.3,0,0.6,0,0.9,0c0.3,0,0.6,0.1,0.9,0.3c0.3,0.1,0.4,0.3,0.5,0.5
			c0,0.1,0,0.7-0.2,1.6c-0.2,0.9-0.4,2-0.5,3.3c-0.2,1.3-0.3,2.6-0.4,3.9c-0.1,1.3,0,2.5,0.2,3.4c0.2,0.7,0.4,1.2,0.8,1.5
			c0.4,0.3,0.9,0.4,1.6,0.3c0.6-0.1,1.2-0.5,1.9-1.1c0.7-0.6,1.3-1.4,2-2.3c0.7-1,1.3-2.1,1.8-3.4c0.6-1.3,1-2.8,1.3-4.4l0.8,0.3
			c-0.2,1.7-0.6,3.2-1.2,4.6c-0.6,1.4-1.2,2.7-2,3.9c-0.8,1.1-1.6,2.1-2.6,2.8c-0.9,0.8-1.9,1.2-2.9,1.5c-1.5,0.4-2.6,0.2-3.3-0.5
			c-0.7-0.7-1.3-1.6-1.5-2.7c-0.1-0.4-0.2-0.9-0.2-1.4c0-0.5-0.1-1-0.1-1.5c-0.3,1-0.6,2-1,3c-0.4,1-0.8,1.8-1.2,2.6
			c-0.5,0.8-1,1.4-1.5,1.9c-0.6,0.5-1.2,0.9-1.9,1c-1.3,0.3-2.4,0-3.4-0.9c-1-0.9-1.7-2.1-2.1-3.7c-0.2-1-0.4-2.3-0.4-3.9
			c0-1.5,0.1-3,0.3-4.4c0.2-1.4,0.5-2.6,0.8-3.7c0.3-1.1,0.7-1.6,1.1-1.7c0.2,0,0.5,0,1,0.1c0.5,0.1,0.9,0.3,1.3,0.5
			c-0.2,0.6-0.4,1.3-0.6,2.3c-0.2,1-0.4,2-0.5,3.1c-0.1,1.1-0.2,2.3-0.2,3.4c0,1.2,0.1,2.2,0.3,3.1c0.1,0.2,0.1,0.5,0.3,1
			c0.1,0.4,0.3,0.8,0.5,1.2c0.2,0.4,0.5,0.7,0.9,0.9c0.3,0.2,0.7,0.3,1.2,0.2c0.8-0.2,1.6-1,2.3-2.3s1.3-2.9,1.9-4.7
			c0.5-1.8,1-3.6,1.4-5.4C235.1,107.3,235.4,105.8,235.7,104.6z"/>
		<path fill="#FFF9E9" d="M246.1,117.6c0-0.1,0-0.8,0.2-1.9s0.3-2.4,0.5-3.9c0.2-1.5,0.3-3,0.3-4.6c0.1-1.6,0-3-0.3-4.2
			c0.2-0.3,0.4-0.7,0.9-1c0.4-0.4,0.9-0.6,1.4-0.7c1-0.2,1.6,0.1,1.8,1.1c0.1,0.6,0.2,1.6,0.2,3.1c0,1.4-0.1,3-0.2,4.7
			c0.5-1.3,1-2.6,1.6-4c0.6-1.4,1.3-2.7,2.1-3.8c0.8-1.2,1.6-2.2,2.5-3c0.9-0.8,1.9-1.4,3-1.7c0.7-0.2,1.3-0.2,1.9,0
			c0.6,0.2,1.1,0.4,1.5,0.8c0.4,0.4,0.8,0.9,1.1,1.4c0.3,0.6,0.5,1.1,0.7,1.8c0.2,0.8,0.3,1.7,0.2,2.5c-0.1,0.8-0.1,1.6-0.2,2.4
			c-0.1,0.8-0.2,1.5-0.3,2.3c-0.1,0.7,0,1.4,0.1,2.1c0.2,0.8,0.5,1.3,0.9,1.5c0.4,0.2,0.8,0.3,1.3,0.2c0.7-0.2,1.3-0.6,1.9-1.3
			c0.6-0.7,1.1-1.5,1.6-2.5c0.5-1,0.9-2.1,1.2-3.2c0.4-1.2,0.7-2.3,0.9-3.5l0.8,0.6c-0.3,1.5-0.6,2.9-1,4.2s-0.9,2.5-1.5,3.5
			c-0.6,1-1.3,1.9-2.1,2.5c-0.8,0.7-1.7,1.1-2.7,1.4c-1.3,0.3-2.3,0.2-3.1-0.3c-0.8-0.5-1.3-1.3-1.6-2.3c-0.1-0.6-0.2-1.2-0.2-1.8
			c0-0.7,0-1.4,0.1-2.1c0-0.7,0.1-1.4,0.1-2.1c0-0.7-0.1-1.4-0.2-2.1c-0.2-1-0.6-1.7-1.1-2c-0.5-0.3-1.1-0.4-1.7-0.2
			c-1.1,0.3-2.2,1-3.1,2.3c-0.9,1.2-1.8,2.7-2.6,4.4s-1.4,3.4-2,5.2c-0.6,1.8-1.1,3.4-1.5,4.8c-0.6,0.1-1.2,0.2-1.8,0.1
			C247,118.1,246.5,117.9,246.1,117.6z"/>
		<path fill="#FFF9E9" d="M286.3,89.9c-0.5-0.5-1.3-0.6-2.3-0.3c-1,0.2-1.9,0.7-2.7,1.5c-0.8,0.7-1.5,1.6-2.2,2.7
			c-0.6,1-1.2,2.2-1.6,3.4c-0.4,1.2-0.8,2.5-1,3.7c-0.2,1.2-0.4,2.3-0.4,3.4c0,1.1,0,1.9,0.2,2.6c0.2,0.8,0.5,1.5,1,1.8
			c0.5,0.4,1,0.5,1.6,0.3c0.7-0.2,1.5-0.7,2.4-1.7c0.8-1,1.6-2.2,2.4-3.8c0.8-1.6,1.5-3.4,2.1-5.6c0.6-2.1,1.1-4.4,1.4-7
			c0.4-2.9,0.8-5.9,1.2-9c0.4-3.1,0.9-5.9,1.4-8.4c0.5-2.5,1.1-4.7,1.7-6.3c0.6-1.7,1.3-2.6,2.1-2.8c0.3-0.1,0.6,0,0.9,0.2
			c0.3,0.2,0.5,0.5,0.6,0.8c0.1,0.6,0.1,1.7-0.2,3.2c-0.3,1.6-0.7,3.5-1.1,5.7c-0.5,2.2-1,4.6-1.5,7.2c-0.5,2.6-1,5.2-1.4,7.8
			c-0.4,2.6-0.6,5.1-0.7,7.5c-0.1,2.4,0.1,4.5,0.5,6.3c0.3,1.1,0.5,1.8,0.7,2.3c0.2,0.5,0.7,0.6,1.3,0.5c0.6-0.1,1.2-0.5,1.8-1.1
			c0.7-0.6,1.3-1.3,1.9-2.2c0.6-0.9,1.2-1.9,1.6-3.1c0.5-1.2,0.9-2.5,1.2-3.9l0.8,0.3c-0.2,1.6-0.6,3.1-1.1,4.5
			c-0.5,1.4-1.2,2.7-1.9,3.8c-0.7,1.1-1.6,2-2.5,2.8c-0.9,0.8-1.9,1.2-2.8,1.5c-0.7,0.2-1.3,0.2-1.8,0c-0.5-0.1-1-0.4-1.3-0.7
			c-0.4-0.3-0.7-0.7-0.9-1.2c-0.2-0.5-0.4-0.9-0.5-1.4c-0.2-0.6-0.3-1.5-0.3-2.5c-0.1-1.1-0.1-2.3-0.1-3.6c-0.5,1.7-1.1,3.3-1.8,4.8
			c-0.7,1.5-1.4,2.8-2.1,4c-0.8,1.2-1.5,2.1-2.4,2.8c-0.8,0.7-1.6,1.2-2.5,1.4c-0.5,0.1-1,0.1-1.5,0.1c-0.5-0.1-1-0.2-1.5-0.5
			s-0.9-0.7-1.3-1.2c-0.4-0.5-0.7-1.2-0.9-2c-0.2-1-0.3-2.2-0.2-3.6c0.1-1.3,0.4-2.7,0.8-4.1s1-2.8,1.6-4.3c0.7-1.4,1.5-2.7,2.3-3.9
			c0.9-1.2,1.9-2.2,2.9-3c1-0.8,2.1-1.4,3.3-1.7c1.6-0.4,2.6,0,2.8,1.1c0,0.1,0.1,0.3,0.1,0.4C286.3,89.6,286.3,89.7,286.3,89.9z"/>
		<path fill="#FFF9E9" d="M128.7,195.6c-0.1,0.5-0.4,1.1-0.9,1.6c-0.5,0.5-1,0.8-1.5,0.9c-0.7,0.2-1.6,0-2.6-0.5
			c-1-0.5-2.2-1.2-3.4-2.2c-1.2-1-2.6-2.1-3.9-3.4c-1.4-1.3-2.7-2.7-4-4.1c-1.3-1.4-2.5-2.8-3.7-4.2c-1.2-1.4-2.2-2.7-3.1-3.9
			c-0.2,3.9-0.3,7.7-0.4,11.4c-0.1,3.7-0.2,7.1-0.4,10.1c-1,0.2-1.9,0.2-2.7-0.2c-0.9-0.3-1.4-0.9-1.6-1.7c-0.1-0.4-0.1-0.9-0.1-1.5
			c0-0.6,0.1-1.2,0.1-1.7c0.3-3.9,0.6-7.6,0.9-11c0.3-3.4,0.7-6.7,1.1-9.9s0.8-6.4,1.3-9.7c0.5-3.2,1-6.6,1.7-10.2
			c-1.1,0.5-2.1,1-3,1.6c-0.9,0.6-1.6,1.1-2.2,1.6c-0.6,0.5-1.1,1-1.5,1.3c-0.4,0.4-0.7,0.6-0.8,0.6c-0.1,0-0.3,0-0.5-0.1
			c-0.2-0.1-0.4-0.1-0.7-0.2c-0.2-0.1-0.4-0.2-0.6-0.4c-0.2-0.1-0.3-0.3-0.3-0.4c0.6-0.5,1.4-1,2.2-1.6c0.8-0.6,1.8-1.1,2.7-1.7
			c1-0.6,2.1-1.1,3.2-1.6c1.1-0.5,2.3-0.9,3.6-1.2c1.6-0.4,3.3-0.6,5-0.6c1.8,0,3.4,0.2,4.9,0.7c1.5,0.5,2.9,1.3,4.1,2.4
			c1.2,1.1,2,2.6,2.4,4.4c0.4,1.8,0.4,3.5-0.1,5c-0.5,1.5-1.3,2.9-2.4,4.1c-1.1,1.2-2.4,2.3-3.9,3.2c-1.5,0.9-2.9,1.7-4.4,2.3
			c-1.5,0.6-2.8,1.2-4.1,1.6c-1.2,0.4-2.2,0.7-2.8,0.8c1.6,1.7,3.1,3.3,4.6,4.9c1.5,1.6,3,3.2,4.7,4.7c1.7,1.5,3.6,3,5.7,4.5
			C123.4,192.8,125.9,194.2,128.7,195.6z M120.1,160.1c-0.4-1.5-1-2.7-1.8-3.6c-0.8-0.9-1.8-1.5-2.8-1.9c-1.1-0.4-2.2-0.6-3.5-0.6
			c-1.2,0-2.5,0.2-3.7,0.5c-0.7,2.9-1.2,6.2-1.6,10.1c-0.4,3.9-0.7,7.9-0.9,12c2-0.6,3.9-1.4,5.9-2.4c1.9-1,3.6-2.2,5-3.6
			c1.4-1.4,2.5-3,3.2-4.7C120.5,164.1,120.6,162.1,120.1,160.1z"/>
		<path fill="#FFF9E9" d="M142.1,169.7c0.3,1.4,0.2,2.8-0.3,4.3c-0.5,1.4-1.3,2.8-2.4,4.1c-1.1,1.3-2.4,2.4-3.9,3.4
			c-1.5,1-3,1.8-4.5,2.3c0,0.4,0,0.8,0.1,1.1c0,0.3,0.1,0.7,0.2,1c0.1,0.6,0.3,1.1,0.6,1.6c0.3,0.5,0.6,1,1.1,1.3
			c0.4,0.4,1,0.6,1.6,0.8c0.6,0.1,1.4,0.1,2.2-0.1c1.2-0.3,2.3-0.8,3.4-1.6c1.1-0.8,2-1.8,2.9-2.9s1.6-2.4,2.3-3.9
			c0.7-1.4,1.2-2.9,1.6-4.4l0.8,0.3c-0.3,1.8-0.9,3.6-1.6,5.2c-0.7,1.6-1.6,3-2.6,4.3c-1,1.2-2.1,2.3-3.4,3.1s-2.6,1.4-3.9,1.8
			c-2.2,0.5-4.1,0.3-5.5-0.6c-1.4-1-2.3-2.4-2.8-4.2c-0.3-1.1-0.4-2.3-0.3-3.6c0.1-1.3,0.3-2.6,0.7-4c0.4-1.3,0.9-2.7,1.6-3.9
			c0.6-1.3,1.4-2.5,2.3-3.5c0.9-1.1,1.8-2,2.8-2.7c1-0.7,2-1.3,3.1-1.5c0.8-0.2,1.7-0.2,2.5,0.1
			C141.1,167.5,141.7,168.4,142.1,169.7z M138.1,168.9c-0.9,0.2-1.7,0.8-2.6,1.7c-0.8,0.9-1.6,2-2.2,3.3c-0.7,1.3-1.2,2.7-1.6,4.2
			c-0.4,1.5-0.6,3-0.7,4.4c0.9-0.6,1.9-1.3,3-2.3c1.1-0.9,2.1-2,3-3.2s1.7-2.4,2.2-3.6c0.5-1.3,0.6-2.5,0.3-3.7
			c-0.1-0.4-0.2-0.7-0.4-0.9C138.9,168.8,138.5,168.8,138.1,168.9z"/>
		<path fill="#FFF9E9" d="M162.4,183.6c-0.2,0.1-0.5,0.1-0.8,0.1c-0.3,0-0.7,0-1,0c-0.3,0-0.6-0.1-0.9-0.2c-0.2-0.1-0.4-0.2-0.4-0.4
			c-0.1-0.3,0-0.9,0.1-2c0.1-1.1,0.3-2.3,0.4-3.7c0.1-1.4,0.2-2.8,0.2-4.2s-0.1-2.7-0.3-3.6c-0.2-0.6-0.4-1.1-0.7-1.4
			c-0.3-0.3-0.7-0.4-1.2-0.3c-0.8,0.2-1.7,0.9-2.6,2.2c-0.9,1.3-1.8,2.8-2.6,4.7c-0.8,1.8-1.6,3.8-2.2,6c-0.6,2.2-1.1,4.3-1.3,6.3
			c-0.3,0.1-0.6,0.1-0.9,0.1c-0.4,0-0.7,0-1,0c-0.3,0-0.6-0.1-0.9-0.2c-0.3-0.1-0.4-0.2-0.4-0.3c-0.1-0.2,0-0.9,0.1-2.1
			c0.1-1.2,0.2-2.6,0.4-4.2c0.1-1.6,0.2-3.3,0.2-5c0-1.7-0.1-3.2-0.4-4.4c0.2-0.3,0.4-0.7,0.9-1s0.9-0.6,1.4-0.7
			c1-0.2,1.6,0.1,1.8,1.1c0.1,0.5,0.2,1.4,0.2,2.6c0,1.2,0,2.6-0.1,4.1c0.5-1.4,1-2.8,1.6-4.2c0.6-1.5,1.3-2.8,2.1-4.1
			c0.8-1.3,1.6-2.4,2.5-3.3c0.9-0.9,1.9-1.5,2.9-1.7c1.1-0.3,2,0,2.6,0.7c0.6,0.7,1.1,1.7,1.3,2.8c0.2,0.7,0.3,1.4,0.3,2.2
			c0.1,0.8,0.1,1.6,0.1,2.3c0,0.8,0,1.5-0.1,2.1c-0.1,0.6-0.1,1.2-0.2,1.6c0.3-1.2,0.7-2.4,1.1-3.5c0.4-1.2,0.9-2.3,1.5-3.3
			c0.6-1,1.2-1.8,2-2.5c0.7-0.7,1.6-1.2,2.5-1.4c1.2-0.3,2.1-0.1,2.7,0.5c0.6,0.6,1.1,1.4,1.3,2.3c0.2,0.7,0.3,1.5,0.2,2.4
			c0,0.9-0.1,1.8-0.1,2.7c0,0.9-0.1,1.7-0.1,2.5c0,0.8,0,1.5,0.2,2.1c0.1,0.5,0.4,0.9,0.7,1.2c0.3,0.3,0.8,0.4,1.4,0.2
			c0.8-0.2,1.4-0.6,2-1.4c0.6-0.7,1.1-1.6,1.5-2.6c0.4-1,0.8-2.1,1.1-3.2c0.3-1.1,0.5-2.2,0.8-3.3l0.8,0.6c-0.2,1.3-0.4,2.6-0.8,3.9
			c-0.4,1.3-0.8,2.5-1.4,3.7c-0.6,1.2-1.3,2.1-2.1,3c-0.8,0.8-1.8,1.4-2.9,1.6c-1.3,0.3-2.3,0.1-3.1-0.5c-0.8-0.6-1.3-1.5-1.6-2.6
			c-0.2-0.7-0.2-1.4-0.2-2.1c0-0.7,0-1.5,0.1-2.2c0.1-0.7,0.1-1.4,0.1-2.1c0-0.7,0-1.3-0.2-1.8c-0.2-0.7-0.5-1.2-0.9-1.4
			c-0.4-0.2-0.8-0.3-1.2-0.2c-0.9,0.2-1.8,1.2-2.5,2.9c-0.7,1.7-1.7,4.1-2.8,7.1c-0.4,1-0.7,2-0.8,3
			C162.8,181.9,162.6,182.8,162.4,183.6z"/>
		<path fill="#FFF9E9" d="M197.7,170.1c-1,0.2-1.9,0.3-2.8,0.1c-0.9,2-1.9,3.7-3.1,5.1c-1.2,1.5-2.5,2.4-3.9,2.7
			c-1.6,0.4-2.8,0.2-3.7-0.7c-0.9-0.8-1.5-1.9-1.9-3.3c-0.3-1.1-0.4-2.4-0.3-3.7c0.1-1.3,0.3-2.6,0.6-3.7c0.3-1.2,0.8-2.2,1.4-3.1
			c0.6-0.9,1.3-1.4,2.1-1.6c0.3-0.1,0.7-0.1,1.2,0c-0.3,0.4-0.5,1-0.8,1.9c-0.3,0.9-0.5,1.9-0.6,3c-0.2,1.1-0.3,2.2-0.3,3.2
			c0,1.1,0,1.9,0.2,2.6c0.3,1.1,0.6,1.9,1.1,2.3c0.5,0.4,1,0.5,1.6,0.4c0.8-0.2,1.6-0.8,2.5-1.9c0.9-1.1,1.7-2.4,2.4-3.9
			c-1.3-0.6-2.4-1.5-3.2-2.8s-1.5-2.6-1.8-4c-0.2-0.9-0.3-1.8-0.3-2.7c0-0.9,0.2-1.7,0.5-2.5c0.3-0.8,0.7-1.4,1.3-2
			c0.6-0.5,1.3-0.9,2.2-1.1c1.5-0.4,2.6-0.2,3.3,0.5c0.7,0.7,1.2,1.6,1.5,2.9c0.3,1.4,0.4,3.1,0.1,5c-0.3,1.9-0.8,3.8-1.4,5.7
			c0.8,0.2,1.5,0.2,2.2,0c0.4-0.1,0.9-0.3,1.4-0.5c0.5-0.3,1-0.6,1.5-1.1c0.5-0.4,0.9-1,1.3-1.6c0.4-0.6,0.6-1.4,0.8-2.2l0.8,0.4
			c-0.2,1-0.4,1.8-0.8,2.5c-0.4,0.7-0.9,1.4-1.4,1.9c-0.5,0.5-1.1,1-1.7,1.3C198.9,169.8,198.3,170,197.7,170.1z M190.7,162.5
			c0.3,1.1,0.7,2.1,1.2,3.1c0.6,1,1.3,1.8,2.1,2.4c0.6-1.6,1-3.2,1.3-4.8c0.2-1.6,0.2-3.1-0.1-4.5c-0.3-1.1-0.6-1.8-1-2.2
			c-0.4-0.4-0.9-0.6-1.4-0.5c-0.4,0.1-0.7,0.3-1.1,0.7c-0.3,0.4-0.6,0.9-0.8,1.5c-0.2,0.6-0.3,1.2-0.4,2
			C190.4,160.9,190.5,161.6,190.7,162.5z"/>
		<path fill="#FFF9E9" d="M226.1,158.3c-0.4,2-1,3.5-1.8,4.4c-0.8,0.9-1.7,1.4-2.6,1.6c-1.2,0.3-2.3,0.1-3.4-0.6
			c-1-0.7-1.9-1.9-2.6-3.7c-0.3,1.5-0.8,3-1.3,4.5c-0.5,1.5-1.2,2.9-1.8,4.2c-0.7,1.3-1.4,2.3-2.2,3.2c-0.8,0.9-1.6,1.4-2.5,1.6
			c-1.2,0.3-2.1-0.1-2.8-1.1c-0.7-1-1.3-2.4-1.7-4.2c0-0.1-0.1-0.7-0.4-1.8c-0.2-1.1-0.6-3-1-5.6c-0.2-1-0.2-1.7-0.2-2.1
			c0.1-0.4,0.5-0.7,1.3-0.9c0.6-0.2,1.1-0.1,1.3,0.1c0.2,0.2,0.4,0.7,0.6,1.4c0.3,1.2,0.6,2.7,0.8,4.3c0.2,1.7,0.5,3.2,0.9,4.7
			c0.3,1.1,0.5,1.8,0.8,2.3c0.3,0.5,0.7,0.6,1.2,0.5c0.7-0.2,1.3-0.7,2-1.7c0.6-1,1.2-2.2,1.8-3.6s1-2.9,1.4-4.5
			c0.4-1.6,0.8-3.1,1-4.6c-0.3-1.3-0.4-2.3-0.5-3.1c0-0.8,0-1.5,0.1-2s0.3-0.9,0.5-1.2c0.2-0.3,0.5-0.4,0.9-0.5
			c0.7-0.2,1.3,0,1.7,0.4c0.4,0.4,0.7,0.8,0.8,1.2c0.1,0.4,0.1,0.8,0,1.2c-0.1,0.4-0.2,0.9-0.3,1.5c-0.1,0.6-0.2,1.3-0.2,2.2
			c0,0.8,0.1,1.9,0.4,3.1c0.1,0.4,0.2,0.9,0.4,1.4c0.2,0.5,0.4,0.9,0.7,1.3c0.3,0.4,0.6,0.7,1,0.8c0.4,0.2,0.9,0.2,1.5,0.1
			c0.8-0.2,1.4-0.7,2-1.4s1-2,1.4-3.7L226.1,158.3z"/>
		<path fill="#FFF9E9" d="M239,151.5c0.2,0,0.4,0,0.6,0c0.3,0,0.5,0,0.8,0.1c0.3,0.1,0.5,0.1,0.7,0.2c0.2,0.1,0.3,0.3,0.4,0.5
			c0.1,0.3,0,0.8-0.2,1.5c-0.2,0.7-0.4,1.4-0.6,2.2c-0.2,0.8-0.4,1.6-0.6,2.5c-0.2,0.8-0.1,1.6,0,2.2c0.1,0.6,0.4,1.1,0.8,1.5
			c0.4,0.5,1,0.6,1.6,0.5c1-0.2,2.1-1.3,3.4-3.1c1.3-1.8,2.4-4.4,3.3-7.8l0.7,0.4c-0.2,1.7-0.6,3.2-1.2,4.6c-0.6,1.4-1.2,2.7-2,3.8
			c-0.8,1.1-1.6,2-2.5,2.8c-0.9,0.7-1.9,1.2-2.9,1.5c-1.4,0.3-2.5,0.2-3.3-0.5c-0.8-0.7-1.4-1.5-1.6-2.4c-0.1-0.4-0.2-1-0.2-1.6
			c-1.1,2.5-2.2,4.5-3.2,5.9c-1,1.4-2.2,2.2-3.6,2.6c-1.2,0.3-2.2,0.1-3.2-0.4c-1-0.6-1.6-1.6-2-3.2c-0.3-1.1-0.3-2.3-0.2-3.7
			c0.1-1.4,0.4-2.8,0.8-4.2s1-2.9,1.7-4.3c0.7-1.4,1.5-2.7,2.4-3.8s1.9-2.1,3-3c1.1-0.8,2.2-1.4,3.5-1.7c1.4-0.3,2.7-0.3,3.9,0.3
			c1.1,0.5,1.9,1.4,2.2,2.7c0.2,0.9,0.1,1.6-0.3,2.1c-0.4,0.5-1,0.8-1.8,1c0-0.7,0-1.4-0.2-2c-0.2-0.8-0.6-1.5-1.1-2
			c-0.6-0.5-1.3-0.6-2.3-0.4c-0.9,0.2-1.7,0.7-2.5,1.4c-0.8,0.7-1.5,1.6-2.1,2.7c-0.6,1.1-1.2,2.2-1.7,3.5s-0.9,2.6-1.1,3.9
			c-0.3,1.3-0.5,2.5-0.5,3.7c0,1.2,0,2.2,0.3,3.1c0.3,1.4,1,2,2,1.8c0.8-0.2,1.7-0.9,2.6-2c0.9-1.1,1.7-2.5,2.4-4
			c0.8-1.5,1.5-3.1,2.1-4.7C238,154,238.6,152.6,239,151.5z"/>
		<path fill="#FFF9E9" d="M261.1,120.8c0.2,0.8,0.3,1.9,0.2,3.3c0,1.4-0.2,2.9-0.5,4.6c-0.3,1.7-0.7,3.5-1.2,5.4s-1.1,3.8-1.8,5.7
			s-1.5,3.7-2.4,5.5s-1.9,3.4-2.9,4.8c0,1,0.1,2.1,0.2,3c0.1,1,0.2,1.9,0.5,2.7c0.7,2.8,1.8,4.1,3.5,3.7c0.7-0.2,1.4-0.6,2-1.3
			c0.6-0.7,1.2-1.5,1.6-2.5c0.5-1,0.9-2.1,1.3-3.3c0.4-1.2,0.7-2.4,0.9-3.6l0.9,0.2c-0.7,3.5-1.7,6.4-3,8.6
			c-1.3,2.2-2.9,3.6-4.9,4.1c-1.6,0.4-2.8,0.1-3.8-0.8c-0.9-0.9-1.6-2.2-2-3.8c-0.4-1.8-0.6-4-0.5-6.6c0.1-2.6,0.3-5.4,0.8-8.3
			c0.4-2.9,1-5.8,1.7-8.7s1.4-5.6,2.2-7.9c0.8-2.4,1.6-4.3,2.3-5.9c0.8-1.5,1.5-2.4,2.1-2.5c0.3-0.1,0.6,0,0.9,0.2
			c0.3,0.2,0.6,0.5,0.8,0.9c0.3,0.4,0.5,0.8,0.7,1.3C260.9,120,261,120.4,261.1,120.8z M259.1,121.7c-0.3,0.1-0.6,0.5-1,1.3
			c-0.4,0.8-0.8,1.9-1.3,3.2c-0.4,1.3-0.9,2.9-1.4,4.6c-0.5,1.8-0.9,3.6-1.3,5.5c-0.4,1.9-0.7,3.9-1,5.9c-0.3,2-0.5,4-0.5,5.9
			c1.2-2,2.3-4.3,3.3-6.9c1-2.6,1.8-5.1,2.4-7.6c0.6-2.5,1.1-4.7,1.3-6.8c0.3-2,0.3-3.5,0-4.4c-0.1-0.4-0.2-0.6-0.3-0.7
			C259.2,121.7,259.1,121.6,259.1,121.7z"/>
		<path fill="#FFF9E9" d="M238.5,190.5c-0.4,0.1-0.8,0.1-1.1,0c-0.3-0.1-0.5-0.4-0.7-0.8c-0.1-0.5,0.1-1,0.5-1.5
			c0.5-0.5,1-0.8,1.6-1c0.4-0.1,0.7-0.1,0.9,0c0.2,0.1,0.4,0.4,0.5,0.8c0.1,0.5,0,1-0.4,1.5C239.6,190,239.1,190.3,238.5,190.5z"/>
		<path fill="#FFF9E9" d="M252,170.6c0.6-0.2,1.2-0.2,1.6-0.1s0.8,0.3,1.2,0.5c0.3,0.3,0.6,0.6,0.8,1c0.2,0.4,0.4,0.8,0.4,1.2
			c0.2,0.9,0.2,1.7-0.1,2.4c-0.2,0.8-0.7,1.2-1.4,1.4c-0.5,0.1-1,0-1.5-0.4c0.4-0.3,0.7-0.9,0.8-1.7c0.2-0.8,0.2-1.5,0-2.2
			c-0.1-0.4-0.2-0.6-0.4-0.8c-0.2-0.2-0.5-0.2-0.9-0.1c-0.8,0.2-1.6,0.8-2.3,1.7s-1.3,2.1-1.7,3.3c-0.5,1.3-0.8,2.6-0.9,4
			c-0.2,1.4-0.1,2.6,0.2,3.7c0.1,0.5,0.3,0.9,0.5,1.3c0.2,0.4,0.5,0.8,0.8,1.1c0.3,0.3,0.7,0.5,1.2,0.6c0.5,0.1,1,0.1,1.7-0.1
			c0.9-0.2,1.8-0.6,2.6-1.2s1.6-1.3,2.3-2.3c0.7-0.9,1.3-2,1.7-3.1s0.8-2.5,1-3.8l0.7,0.3c-0.2,1.5-0.6,2.9-1.1,4.2
			c-0.5,1.4-1.2,2.6-2,3.7c-0.8,1.1-1.7,2-2.7,2.7c-1,0.7-2,1.2-3.1,1.5c-1.4,0.3-2.8,0.2-3.9-0.6c-1.2-0.7-2-2-2.5-4
			c-0.4-1.5-0.4-3-0.2-4.6c0.3-1.6,0.7-3.1,1.4-4.4c0.7-1.4,1.5-2.5,2.5-3.5C249.8,171.5,250.8,170.9,252,170.6z"/>
		<path fill="#FFF9E9" d="M272.1,178.9c-0.8,0.2-1.6,0.2-2.3,0.1c-0.7,1.6-1.6,3-2.6,4.2c-1,1.2-2,1.9-3.2,2.2
			c-1.3,0.3-2.3,0.1-3-0.5c-0.7-0.7-1.2-1.6-1.5-2.7c-0.2-0.9-0.3-1.9-0.2-3c0.1-1.1,0.2-2.1,0.5-3.1c0.3-1,0.7-1.8,1.2-2.5
			c0.5-0.7,1.1-1.1,1.7-1.3c0.3-0.1,0.6-0.1,1,0c-0.2,0.3-0.4,0.8-0.6,1.6c-0.2,0.8-0.4,1.6-0.5,2.5c-0.1,0.9-0.2,1.8-0.2,2.6
			s0,1.6,0.2,2.2c0.2,0.9,0.5,1.5,0.9,1.9c0.4,0.3,0.8,0.4,1.3,0.3c0.6-0.2,1.3-0.7,2-1.6c0.7-0.9,1.4-2,1.9-3.2
			c-1-0.5-1.9-1.2-2.6-2.2c-0.7-1-1.2-2.1-1.5-3.3c-0.2-0.8-0.3-1.5-0.2-2.2c0-0.7,0.2-1.4,0.4-2c0.2-0.6,0.6-1.1,1.1-1.6
			c0.5-0.4,1.1-0.8,1.8-0.9c1.2-0.3,2.1-0.2,2.7,0.4c0.6,0.6,1,1.3,1.2,2.3c0.3,1.2,0.3,2.5,0.1,4.1c-0.2,1.6-0.6,3.1-1.2,4.6
			c0.6,0.2,1.2,0.2,1.8,0c0.4-0.1,0.7-0.2,1.2-0.4c0.4-0.2,0.8-0.5,1.2-0.9c0.4-0.4,0.7-0.8,1-1.3c0.3-0.5,0.5-1.1,0.6-1.8l0.6,0.3
			c-0.1,0.8-0.4,1.5-0.7,2.1c-0.3,0.6-0.7,1.1-1.2,1.5c-0.4,0.4-0.9,0.8-1.4,1.1C273.1,178.6,272.6,178.8,272.1,178.9z M266.4,172.7
			c0.2,0.9,0.5,1.7,1,2.5c0.5,0.8,1,1.5,1.7,2c0.5-1.3,0.8-2.6,1-3.9c0.2-1.3,0.2-2.5-0.1-3.6c-0.2-0.9-0.5-1.5-0.8-1.8
			c-0.4-0.3-0.7-0.5-1.1-0.4c-0.3,0.1-0.6,0.3-0.9,0.6c-0.3,0.3-0.5,0.7-0.7,1.2c-0.2,0.5-0.3,1-0.3,1.6S266.2,172,266.4,172.7z"/>
		<path fill="#FFF9E9" d="M288.9,178.9c-0.2,0-0.4,0.1-0.7,0.1c-0.3,0-0.5,0-0.8,0c-0.3,0-0.5-0.1-0.7-0.1c-0.2-0.1-0.3-0.2-0.3-0.3
			c-0.1-0.2,0-0.8,0.1-1.6c0.1-0.9,0.2-1.9,0.3-3c0.1-1.1,0.2-2.3,0.2-3.5c0-1.2,0-2.2-0.2-2.9c-0.1-0.5-0.3-0.9-0.5-1.2
			c-0.2-0.3-0.6-0.4-1-0.3c-0.7,0.2-1.4,0.8-2.1,1.8c-0.7,1-1.4,2.3-2.1,3.8c-0.7,1.5-1.3,3.1-1.8,4.9s-0.9,3.5-1,5.2
			c-0.2,0.1-0.5,0.1-0.8,0.1c-0.3,0-0.6,0-0.8,0c-0.3,0-0.5-0.1-0.7-0.1c-0.2-0.1-0.3-0.2-0.4-0.3c0-0.2,0-0.8,0.1-1.7
			c0.1-1,0.2-2.1,0.3-3.4c0.1-1.3,0.2-2.7,0.2-4c0-1.4-0.1-2.6-0.3-3.6c0.1-0.3,0.4-0.5,0.7-0.8c0.3-0.3,0.7-0.5,1.1-0.6
			c0.8-0.2,1.3,0.1,1.5,0.9c0.1,0.4,0.2,1.1,0.2,2.1c0,1,0,2.1-0.1,3.3c0.4-1.1,0.8-2.3,1.3-3.4c0.5-1.2,1.1-2.3,1.7-3.3
			s1.3-1.9,2.1-2.7c0.7-0.7,1.5-1.2,2.3-1.4c0.9-0.2,1.6,0,2.2,0.6c0.5,0.6,0.9,1.4,1.1,2.3c0.1,0.6,0.2,1.2,0.3,1.8
			c0,0.6,0.1,1.3,0.1,1.9s0,1.2-0.1,1.7c0,0.5-0.1,0.9-0.1,1.3c0.3-1,0.6-1.9,0.9-2.9c0.3-1,0.7-1.9,1.2-2.7c0.5-0.8,1-1.5,1.6-2.1
			c0.6-0.6,1.3-1,2.1-1.1c1-0.2,1.7-0.1,2.2,0.4c0.5,0.5,0.9,1.1,1.1,1.9c0.1,0.6,0.2,1.3,0.2,2c0,0.7,0,1.4-0.1,2.2
			c0,0.7-0.1,1.4-0.1,2.1c0,0.7,0,1.2,0.1,1.7c0.1,0.4,0.3,0.8,0.6,1s0.7,0.3,1.2,0.2c0.6-0.2,1.2-0.5,1.6-1.1s0.9-1.3,1.2-2.1
			c0.3-0.8,0.6-1.7,0.9-2.6c0.2-0.9,0.4-1.8,0.6-2.7l0.7,0.5c-0.1,1-0.3,2.1-0.6,3.2c-0.3,1.1-0.7,2.1-1.1,3c-0.5,0.9-1,1.7-1.7,2.4
			c-0.7,0.7-1.5,1.1-2.4,1.3c-1.1,0.3-1.9,0.1-2.5-0.4c-0.6-0.5-1.1-1.2-1.3-2.1c-0.1-0.5-0.2-1.1-0.2-1.7c0-0.6,0-1.2,0.1-1.8
			c0-0.6,0.1-1.2,0.1-1.7c0-0.5,0-1-0.1-1.5c-0.1-0.6-0.4-1-0.7-1.2c-0.3-0.2-0.7-0.2-1-0.1c-0.8,0.2-1.4,1-2,2.3
			c-0.6,1.4-1.4,3.3-2.2,5.8c-0.3,0.8-0.5,1.7-0.7,2.5C289.3,177.5,289.1,178.2,288.9,178.9z"/>
	</g>
	<g>
		<g>
			<path fill="#FFF9E9" d="M178.2,214.4c1.2,1,2.4,1.9,3.7,2.7c-0.1,0.3-0.4,0.6-0.7,0.7c-0.3,0.2-0.6,0.2-0.8,0.3
				c-0.4,0-1-0.1-1.8-0.5c-0.8-0.4-1.7-0.8-2.6-1.4c-0.9-0.6-1.7-1.2-2.4-1.9c-0.7-0.7-1.1-1.3-1.1-1.9c0-0.3,0.1-0.6,0.3-0.9
				c0.2-0.3,0.7-0.5,1.4-0.6C175.7,212.2,177,213.4,178.2,214.4z"/>
		</g>
		<g>
			<path fill="#FFF9E9" d="M213.9,225.4c1.3,0.1,2.5,0.2,3.8,0.2c0.1,0.3,0,0.6-0.1,0.8c-0.2,0.3-0.3,0.4-0.4,0.5
				c-0.2,0.2-0.7,0.4-1.5,0.5c-0.7,0.1-1.6,0.2-2.4,0.2c-0.9,0-1.7-0.1-2.5-0.2c-0.8-0.1-1.3-0.4-1.7-0.8c-0.2-0.2-0.2-0.5-0.2-0.8
				c0-0.3,0.3-0.7,0.7-1.1C211.1,225.1,212.6,225.3,213.9,225.4z"/>
		</g>
		<g>
			<path fill="#FFF9E9" d="M194.7,222.7c1.2,0.5,2.3,1,3.5,1.4c0,0.3-0.2,0.5-0.4,0.7c-0.2,0.2-0.4,0.3-0.6,0.4
				c-0.3,0.1-0.8,0.1-1.6,0c-0.8-0.1-1.5-0.3-2.4-0.6c-0.8-0.3-1.6-0.6-2.3-1c-0.7-0.4-1.1-0.8-1.3-1.3c-0.1-0.3-0.1-0.5,0.1-0.8
				c0.1-0.3,0.5-0.5,1-0.8C192.2,221.4,193.5,222.1,194.7,222.7z"/>
		</g>
		<g>
			<path fill="#FFF9E9" d="M247.1,215.3c0.8-0.5,1.5-1,2.2-1.6c0.2,0.1,0.3,0.3,0.3,0.5c0,0.2,0,0.4,0,0.5c-0.1,0.2-0.3,0.5-0.6,0.9
				c-0.4,0.4-0.8,0.8-1.3,1.2c-0.5,0.4-1,0.7-1.5,1c-0.5,0.3-1,0.3-1.3,0.3c-0.2,0-0.3-0.2-0.4-0.4c-0.1-0.2-0.1-0.5-0.1-0.9
				C245.4,216.3,246.3,215.8,247.1,215.3z"/>
		</g>
		<g>
			<path fill="#FFF9E9" d="M232.6,222.1c1.1-0.3,2.2-0.7,3.2-1.1c0.2,0.2,0.2,0.5,0.2,0.7c0,0.3-0.1,0.5-0.2,0.6
				c-0.1,0.2-0.5,0.5-1,0.9c-0.6,0.4-1.2,0.7-1.9,1c-0.7,0.3-1.4,0.5-2.1,0.7c-0.7,0.1-1.2,0.1-1.6-0.1c-0.2-0.1-0.3-0.3-0.4-0.6
				c-0.1-0.3,0-0.6,0.2-1.1C230.3,222.7,231.5,222.4,232.6,222.1z"/>
		</g>
	</g>
	<g>
		<g>
			<path fill="#FFF9E9" d="M255.5,209.4c-0.2,0-0.5-0.1-0.7-0.2c-0.5-0.4-0.6-1.1-0.3-1.6c1.5-2.2,2.9-4.5,4.1-6.9
				c0.3-0.6,1-0.8,1.5-0.5c0.6,0.3,0.8,1,0.5,1.5c-1.2,2.5-2.7,4.9-4.3,7.2C256.2,209.2,255.8,209.4,255.5,209.4z"/>
		</g>
		<g>
			<path fill="#FFF9E9" d="M268.8,203.7C268.8,203.7,268.8,203.7,268.8,203.7c-3.1,0-6.3-0.6-9.3-1.1c-0.6-0.1-1-0.8-0.9-1.4
				c0.1-0.6,0.7-1.1,1.3-0.9c2.9,0.5,5.9,0.8,8.9,1c0.6,0,1.1,0.7,1.1,1.3C269.9,203.1,269.4,203.7,268.8,203.7z M277.9,203
				c-0.6,0-1.1-0.4-1.1-1c-0.1-0.6,0.4-1.2,1-1.3c3-0.3,5.9-0.9,8.8-1.7c0.6-0.2,1.2,0.2,1.4,0.8c0.2,0.6-0.2,1.2-0.8,1.4
				c-3,0.8-6.1,1.4-9.1,1.7C278,203,278,203,277.9,203z M295.6,198.4c-0.4,0-0.9-0.3-1.1-0.7c-0.3-0.6,0-1.3,0.6-1.5
				c2.7-1.2,5.4-2.6,7.9-4.2c0.5-0.3,1.2-0.2,1.6,0.4c0.3,0.5,0.2,1.2-0.4,1.6c-2.6,1.6-5.4,3.1-8.2,4.3
				C295.9,198.3,295.7,198.4,295.6,198.4z M311,188.7c-0.3,0-0.6-0.1-0.9-0.4c-0.4-0.5-0.3-1.2,0.1-1.6c2.3-1.9,4.4-4,6.4-6.3
				c0.4-0.5,1.1-0.5,1.6-0.1c0.5,0.4,0.5,1.1,0.1,1.6c-2,2.3-4.3,4.5-6.6,6.5C311.5,188.7,311.3,188.7,311,188.7z M323,175
				c-0.2,0-0.4-0.1-0.6-0.2c-0.5-0.3-0.7-1-0.3-1.6c1.6-2.5,3.1-5.2,4.3-7.9c0.3-0.6,0.9-0.8,1.5-0.6c0.6,0.3,0.8,0.9,0.6,1.5
				c-1.3,2.8-2.8,5.6-4.5,8.2C323.8,174.9,323.4,175,323,175z M330.6,158.4c-0.1,0-0.2,0-0.3,0c-0.6-0.2-1-0.8-0.8-1.4
				c0.8-2.9,1.4-5.8,1.8-8.8c0.1-0.6,0.7-1.1,1.3-1c0.6,0.1,1.1,0.7,1,1.3c-0.4,3.1-1,6.1-1.9,9.1
				C331.5,158.1,331.1,158.4,330.6,158.4z M332.9,140.7c-0.6,0-1.1-0.7-1.1-1.3c-0.1-3-0.3-6.1-0.8-9c-0.1-0.6,0.3-1.3,0.9-1.4
				c0.6-0.1,1.2,0.3,1.3,0.9c0.5,3,0.8,6.3,0.9,9.4C334,140,333.5,140.7,332.9,140.7C332.9,140.7,332.9,140.7,332.9,140.7z"/>
		</g>
		<g>
			<path fill="#FFF9E9" d="M334.7,128.5c-0.3,0-0.5-0.1-0.8-0.3c-0.5-0.4-0.5-1.1-0.1-1.6c2-2.2,3.9-4.6,5.6-7.1
				c0.4-0.5,1.1-0.7,1.6-0.3c0.5,0.4,0.7,1.1,0.3,1.6c-1.7,2.5-3.7,5-5.8,7.3C335.3,128.3,335,128.5,334.7,128.5z M345,113.4
				c-0.2,0-0.3,0-0.5-0.1c-0.6-0.3-0.8-1-0.5-1.5c1.4-2.7,2.5-5.5,3.4-8.3c0.2-0.6,0.8-0.9,1.4-0.7c0.6,0.2,0.9,0.8,0.7,1.4
				c-1,2.9-2.2,5.8-3.6,8.6C345.8,113.2,345.4,113.4,345,113.4z M350.7,96.1c-0.1,0-0.1,0-0.2,0c-0.6-0.1-1.2-0.7-1.1-1.3
				c0.5-2.8,0.6-5.6,0.6-8.5v-0.7c0-0.6,0.7-1,1.4-1c0,0,0,0,0,0c0.6,0,1.6,0.4,1.6,1v0.6c0,2.9-0.5,5.9-0.9,8.9
				C352,95.7,351.2,96.1,350.7,96.1z M350.6,77.9c-0.6,0-1-0.4-1.1-1c-0.5-2.9-1.1-5.9-2-8.7c-0.2-0.6,0.1-1.2,0.8-1.4
				c0.6-0.2,1.2,0.1,1.4,0.8c0.9,3,1.6,6,2.1,9.1c0.1,0.6-0.3,1.2-1,1.3C350.8,77.9,350.7,77.9,350.6,77.9z M345.2,60.5
				c-0.4,0-0.8-0.2-1-0.6c-1.3-2.7-2.8-5.3-4.5-7.8c-0.4-0.5-0.2-1.2,0.3-1.6c0.5-0.4,1.2-0.2,1.6,0.3c1.7,2.6,3.3,5.3,4.7,8
				c0.3,0.6,0,1.3-0.5,1.5C345.5,60.5,345.4,60.5,345.2,60.5z M334.9,45.5c-0.3,0-0.6-0.1-0.8-0.4c-2-2.2-4.2-4.2-6.6-6.1
				c-0.5-0.4-0.6-1.1-0.2-1.6c0.4-0.5,1.1-0.6,1.6-0.2c2.4,1.9,4.7,4.1,6.8,6.4c0.4,0.5,0.4,1.2-0.1,1.6
				C335.5,45.4,335.2,45.5,334.9,45.5z M245,44.4c-0.3,0-0.6-0.1-0.8-0.3c-0.5-0.4-0.5-1.2,0-1.6c2.2-2.2,4.5-4.3,7-6.2
				c0.5-0.4,1.2-0.3,1.6,0.2c0.4,0.5,0.3,1.2-0.2,1.6c-2.4,1.8-4.6,3.8-6.7,6C245.6,44.3,245.3,44.4,245,44.4z M320.7,34
				c-0.2,0-0.4-0.1-0.6-0.2c-2.6-1.5-5.3-2.8-8.1-3.9c-0.6-0.2-0.9-0.9-0.6-1.5c0.2-0.6,0.9-0.9,1.5-0.6c2.9,1.2,5.7,2.5,8.4,4.1
				c0.5,0.3,0.7,1,0.4,1.6C321.5,33.8,321.1,34,320.7,34z M259.5,33.3c-0.4,0-0.8-0.2-1-0.6c-0.3-0.6-0.1-1.2,0.4-1.6
				c2.7-1.5,5.6-2.8,8.5-3.9c0.6-0.2,1.3,0.1,1.5,0.7c0.2,0.6-0.1,1.3-0.7,1.5c-2.8,1-5.5,2.3-8.1,3.8
				C259.9,33.3,259.7,33.3,259.5,33.3z M303.8,27.3c-0.1,0-0.2,0-0.3,0c-2.9-0.7-5.9-1.2-8.9-1.4c-0.6-0.1-1.1-0.6-1-1.2
				c0.1-0.6,0.6-1.1,1.2-1c3.1,0.3,6.2,0.8,9.2,1.5c0.6,0.1,1,0.8,0.8,1.4C304.8,26.9,304.3,27.3,303.8,27.3z M276.6,26.9
				c-0.5,0-1-0.4-1.1-0.9c-0.1-0.6,0.3-1.2,0.9-1.4c3-0.6,6.1-1.1,9.2-1.3c0.6,0,1.2,0.4,1.2,1.1c0,0.6-0.4,1.2-1.1,1.2
				c-3,0.2-6,0.6-8.9,1.2C276.7,26.9,276.6,26.9,276.6,26.9z"/>
		</g>
		<g>
			<path fill="#FFF9E9" d="M136.5,51.6c-0.2,0-0.3,0-0.5-0.1c-0.6-0.3-0.8-0.9-0.6-1.5c1.3-2.8,2.8-5.5,4.5-8.1
				c0.3-0.5,1.1-0.7,1.6-0.3c0.5,0.3,0.7,1.1,0.3,1.6c-1.6,2.5-3.1,5.1-4.4,7.8C137.4,51.4,136.9,51.6,136.5,51.6z M245,44.4
				c-0.4,0-0.7-0.2-0.9-0.5c-0.8-1.2-1.7-2.4-2.6-3.5c-0.4-0.5-0.3-1.2,0.2-1.6c0.5-0.4,1.2-0.3,1.6,0.2c0.9,1.2,1.8,2.4,2.7,3.7
				c0.4,0.5,0.2,1.2-0.3,1.6C245.5,44.4,245.3,44.4,245,44.4z M146.5,36.4c-0.3,0-0.5-0.1-0.8-0.3c-0.5-0.4-0.5-1.1-0.1-1.6
				c2.1-2.3,4.3-4.5,6.7-6.5c0.5-0.4,1.2-0.3,1.6,0.1c0.4,0.5,0.3,1.2-0.1,1.6c-2.3,1.9-4.5,4-6.4,6.2
				C147.1,36.2,146.8,36.4,146.5,36.4z M236.3,34c-0.3,0-0.6-0.1-0.8-0.3c-2.1-2.1-4.5-4-6.9-5.8c-0.5-0.4-0.6-1.1-0.2-1.6
				c0.4-0.5,1.1-0.6,1.6-0.2c2.5,1.8,4.9,3.9,7.1,6c0.5,0.4,0.5,1.2,0,1.6C236.9,33.9,236.6,34,236.3,34z M160.5,24.7
				c-0.4,0-0.8-0.2-1-0.5c-0.3-0.5-0.2-1.2,0.4-1.6c2.6-1.6,5.4-3,8.3-4.3c0.6-0.2,1.3,0,1.5,0.6c0.2,0.6,0,1.3-0.6,1.5
				c-2.7,1.2-5.4,2.5-8,4.1C160.9,24.6,160.7,24.7,160.5,24.7z M221.6,23.2c-0.2,0-0.4,0-0.5-0.1c-2.6-1.4-5.4-2.7-8.2-3.7
				c-0.6-0.2-0.9-0.9-0.7-1.5c0.2-0.6,0.9-0.9,1.5-0.7c2.9,1.1,5.7,2.4,8.5,3.9c0.6,0.3,0.8,1,0.5,1.6C222.4,23,222,23.2,221.6,23.2
				z M177.3,17.6c-0.5,0-1-0.3-1.1-0.9c-0.2-0.6,0.2-1.2,0.8-1.4c3-0.8,6.1-1.3,9.2-1.6c0.6-0.1,1.2,0.4,1.3,1
				c0.1,0.6-0.4,1.2-1,1.3c-3,0.3-5.9,0.8-8.8,1.6C177.5,17.6,177.4,17.6,177.3,17.6z M204.5,16.9c-0.1,0-0.2,0-0.2,0
				c-2.9-0.6-5.9-1-8.9-1.1c-0.6,0-1.1-0.6-1.1-1.2c0-0.6,0.6-1.1,1.2-1.1c3.1,0.1,6.2,0.5,9.2,1.2c0.6,0.1,1,0.7,0.9,1.4
				C205.5,16.5,205,16.9,204.5,16.9z"/>
		</g>
		<g>
			<path fill="#FFF9E9" d="M46.7,102.5c-0.5,0-1-0.4-1.1-0.9c-0.7-3-1.1-6.1-1.2-9.3c0-0.6,0.5-1.2,1.1-1.2c0.6,0,1.2,0.5,1.2,1.1
				c0.1,3,0.5,6,1.1,8.9c0.1,0.6-0.3,1.2-0.9,1.4C46.9,102.5,46.8,102.5,46.7,102.5z M45.9,84.3c0,0-0.1,0-0.1,0
				c-0.6-0.1-1.1-0.6-1-1.3c0.4-3.1,1-6.2,1.9-9.1c0.2-0.6,0.8-0.9,1.4-0.8c0.6,0.2,0.9,0.8,0.8,1.4c-0.9,2.8-1.5,5.8-1.9,8.7
				C47,83.9,46.5,84.3,45.9,84.3z M51.2,66.9c-0.2,0-0.3,0-0.5-0.1c-0.6-0.3-0.8-1-0.5-1.5c1.4-2.8,3-5.5,4.9-8
				c0.4-0.5,1.1-0.6,1.6-0.2c0.5,0.4,0.6,1.1,0.2,1.6c-1.8,2.4-3.3,5-4.7,7.6C52,66.6,51.6,66.9,51.2,66.9z M61.9,52.2
				c-0.3,0-0.6-0.1-0.8-0.3c-0.4-0.5-0.4-1.2,0-1.6c2.2-2.2,4.7-4.1,7.2-5.9c0.5-0.4,1.2-0.2,1.6,0.3c0.4,0.5,0.2,1.2-0.3,1.6
				c-2.5,1.7-4.8,3.6-6.9,5.7C62.5,52.1,62.2,52.2,61.9,52.2z M136.5,51.6c-0.3,0-0.6-0.1-0.8-0.3c-2.2-2-4.5-3.9-7-5.6
				c-0.5-0.3-0.7-1.1-0.3-1.6c0.3-0.5,1.1-0.7,1.6-0.3c2.6,1.7,5.1,3.7,7.3,5.8c0.5,0.4,0.5,1.2,0.1,1.6
				C137.1,51.5,136.8,51.6,136.5,51.6z M77,41.9c-0.4,0-0.8-0.2-1-0.7c-0.3-0.6,0-1.3,0.6-1.5c2.8-1.3,5.8-2.4,8.8-3.2
				c0.6-0.2,1.2,0.2,1.4,0.8c0.2,0.6-0.2,1.2-0.8,1.4c-2.9,0.8-5.7,1.8-8.4,3C77.3,41.9,77.1,41.9,77,41.9z M121.3,41.5
				c-0.2,0-0.3,0-0.5-0.1c-2.7-1.2-5.6-2.2-8.5-2.9c-0.6-0.2-1-0.8-0.8-1.4c0.2-0.6,0.8-1,1.4-0.8c3,0.8,6,1.8,8.8,3
				c0.6,0.3,0.8,0.9,0.6,1.5C122.2,41.3,121.8,41.5,121.3,41.5z M94.6,37.2c-0.6,0-1.1-0.4-1.1-1c-0.1-0.6,0.4-1.2,1-1.2
				c3.1-0.3,6.2-0.3,9.3-0.1c0.6,0,1.1,0.6,1.1,1.2c0,0.6-0.6,1.1-1.2,1.1c-3-0.2-6-0.2-8.9,0.1C94.6,37.2,94.6,37.2,94.6,37.2z"/>
		</g>
		<g>
			<path fill="#FFF9E9" d="M139.4,256.7c-0.6,0-1.1-0.1-1.1-0.7c0-0.6,0.4-1,1.1-1c3-0.2,6-0.5,8.9-1.1c0.6-0.1,1.2,0.3,1.4,0.9
				c0.1,0.6-0.3,0.9-0.9,1C145.7,256.4,142.6,256.7,139.4,256.7C139.5,256.7,139.4,256.7,139.4,256.7z M130.3,257.3c0,0-0.1,0-0.1,0
				c-3.1-0.3-6.2-0.8-9.2-1.5c-0.6-0.1-1-0.8-0.8-1.4c0.1-0.6,0.8-1,1.4-0.8c2.9,0.7,5.9,1.2,8.9,1.5c0.6,0.1,1.1,0.6,1,1.2
				C131.4,256.8,130.9,257.3,130.3,257.3z M157.3,253.7c-0.5,0-0.9-0.3-1.1-0.7c-0.2-0.6,0.1-1.2,0.7-1.5c2.8-1,5.5-2.3,8.2-3.7
				c0.6-0.3,1.2-0.1,1.6,0.5c0.3,0.6,0.1,1.2-0.5,1.6c-2.7,1.5-5.6,2.8-8.5,3.9C157.5,253.7,157.4,253.7,157.3,253.7z M112.6,253
				c-0.1,0-0.3,0-0.4-0.1c-2.9-1.2-5.7-2.6-8.3-4.1c-0.5-0.3-0.7-1-0.4-1.6c0.3-0.5,1-0.7,1.6-0.4c2.6,1.5,5.3,2.9,8,4
				c0.6,0.2,0.9,0.9,0.6,1.5C113.4,252.7,113,253,112.6,253z M96.9,243.7c-0.3,0-0.5-0.1-0.7-0.3c-2.4-2-4.7-4.1-6.8-6.4
				c-0.4-0.5-0.4-1.2,0.1-1.6c0.5-0.4,1.2-0.4,1.6,0.1c2,2.2,4.2,4.3,6.5,6.2c0.5,0.4,0.6,1.1,0.2,1.6
				C97.5,243.6,97.2,243.7,96.9,243.7z M84.5,230.3c-0.4,0-0.7-0.2-0.9-0.5c-1.3-1.9-2.5-4-3.6-6.1c-0.3-0.6-0.1-1.3,0.5-1.5
				c0.6-0.3,1.3-0.1,1.5,0.5c1.1,2,2.2,4,3.5,5.9c0.4,0.5,0.2,1.2-0.3,1.6C85,230.2,84.8,230.3,84.5,230.3z"/>
		</g>
		<g>
			<path fill="#FFF9E9" d="M73.2,224.8c-0.5,0-0.9,0-1.4,0c-0.6,0-1.1,0.1-1.1-0.6c0-0.6,0.5-0.5,1.1-0.5c0,0,0,0,0,0
				c2.9,0,5.9-0.7,9-1.1c0.6-0.1,1.2,0.1,1.3,0.7c0.1,0.6-0.4,1-1,1.1C78.5,224.8,75.8,224.8,73.2,224.8z M62.8,223.9
				c-0.1,0-0.1,0-0.2,0c-3.1-0.5-6.1-1.3-9-2.2c-0.6-0.2-0.9-0.8-0.7-1.4c0.2-0.6,0.8-0.9,1.4-0.7c2.8,0.9,5.8,1.7,8.7,2.2
				c0.6,0.1,1,0.7,0.9,1.3C63.8,223.5,63.3,223.9,62.8,223.9z M45.4,218.2c-0.2,0-0.3,0-0.5-0.1c-2.8-1.4-5.5-3-8-4.8
				c-0.5-0.4-0.6-1.1-0.3-1.6c0.4-0.5,1.1-0.6,1.6-0.3c2.4,1.7,5,3.3,7.7,4.6c0.6,0.3,0.8,1,0.5,1.5C46.3,218,45.9,218.2,45.4,218.2
				z M30.5,207.7c-0.3,0-0.6-0.1-0.8-0.3c-2.2-2.1-4.3-4.5-6.2-6.9c-0.4-0.5-0.3-1.2,0.2-1.6c0.5-0.4,1.2-0.3,1.6,0.2
				c1.8,2.4,3.9,4.6,6,6.6c0.5,0.4,0.5,1.2,0,1.6C31.1,207.6,30.8,207.7,30.5,207.7z M19.3,193.3c-0.4,0-0.8-0.2-1-0.6
				c-1.5-2.7-2.9-5.5-4-8.4c-0.2-0.6,0.1-1.3,0.7-1.5c0.6-0.2,1.3,0.1,1.5,0.7c1.1,2.8,2.4,5.5,3.8,8.1c0.3,0.5,0.1,1.2-0.4,1.6
				C19.7,193.3,19.5,193.3,19.3,193.3z M12.8,176.3c-0.5,0-1-0.4-1.1-0.9c-0.7-3-1.1-6.1-1.3-9.2c0-0.6,0.4-1.2,1.1-1.2
				c0.6,0,1.2,0.4,1.2,1.1c0.2,3,0.6,6,1.3,8.9c0.1,0.6-0.3,1.2-0.9,1.4C13,176.3,12.9,176.3,12.8,176.3z M11.5,157.7
				C11.5,157.7,11.5,157.7,11.5,157.7c-0.7,0-1.2-0.4-1.1-1c0.2-3.1,0.7-6.1,1.4-9.1c0.1-0.6,0.8-0.9,1.4-0.8c0.6,0.1,1,0.8,0.9,1.4
				c-0.7,2.9-1.1,5.7-1.3,8.6C12.6,157.4,12.1,157.7,11.5,157.7z M15.6,140.4c-0.1,0-0.3,0-0.4-0.1c-0.6-0.2-0.9-0.9-0.6-1.5
				c1.1-2.9,2.5-5.7,4-8.4c0.3-0.5,1-0.7,1.6-0.4c0.5,0.3,0.7,1,0.4,1.6c-1.5,2.6-2.8,5.3-3.9,8.1C16.5,140.1,16,140.4,15.6,140.4z
				 M24.6,124.5c-0.2,0-0.5-0.1-0.7-0.2c-0.5-0.4-0.6-1.1-0.2-1.6c1.9-2.4,4-4.7,6.3-6.9c0.5-0.4,1.2-0.4,1.6,0
				c0.4,0.5,0.4,1.2,0,1.6c-2.2,2-4.2,4.3-6.1,6.6C25.3,124.4,25,124.5,24.6,124.5z M37.9,112.1c-0.4,0-0.7-0.2-0.9-0.5
				c-0.4-0.5-0.2-1.2,0.3-1.6c2.5-1.8,5.2-3.4,8-4.7c0.6-0.3,1.3,0,1.5,0.5c0.3,0.6,0,1.3-0.5,1.5c-2.7,1.3-5.3,2.9-7.7,4.6
				C38.4,112,38.1,112.1,37.9,112.1z"/>
		</g>
		<g>
			<path fill="#FFF9E9" stroke="#000000" stroke-width="2" stroke-linecap="round" stroke-linejoin="round" d="M217.8,256.4"/>
		</g>
		<g>
			<path fill="#FFF9E9" stroke="#000000" stroke-width="2" stroke-linecap="round" stroke-linejoin="round" d="M208.1,256.7"/>
		</g>
	</g>
	<g id="XMLID_39_">
		<g>
			<path fill="#FFF9E9" d="M176.2,254.3L176.2,254.3c-0.6-1.4-5.9-3.2-10-1.5l-3.1-7.4c4.1-1.7,6.6-6.7,6-8.1l23.6-0.3l-18.4,7.6
				c-0.3-0.3-0.9-0.4-1.3-0.3c-0.6,0.3-0.9,1-0.7,1.6c0.3,0.6,1,0.9,1.6,0.7c0.5-0.2,0.8-0.7,0.8-1.2l0.1,0l18.4-7.6l0,0
				L176.2,254.3z"/>
			<polygon fill="#FFF9E9" points="163.2,245.3 166.2,252.8 166.6,253.6 163.1,255 159.3,245.8 162.8,244.4 			"/>
		</g>
		<g>
		</g>
	</g>
</g>
</svg>
