<?xml version="1.0" encoding="utf-8"?>
<!-- Generator: Adobe Illustrator 18.0.0, SVG Export Plug-In . SVG Version: 6.00 Build 0)  -->
<!DOCTYPE svg PUBLIC "-//W3C//DTD SVG 1.1//EN" "http://www.w3.org/Graphics/SVG/1.1/DTD/svg11.dtd">
<svg version="1.1" id="Layer_1" xmlns="http://www.w3.org/2000/svg" xmlns:xlink="http://www.w3.org/1999/xlink" x="0px" y="0px"
	 viewBox="0 0 216 153" enable-background="new 0 0 216 153" xml:space="preserve">
<g>
	<g>
		<g>
			<path fill="#FFFFFF" d="M169.5,38.7l-1.7,1.9c-0.2,0.2-0.1,0.5,0.1,0.6l4.9,2.5c0.3,0.1,0.3,0.5,0,0.7l-2.3,1.2
				c-0.2,0.1-0.3,0.4-0.1,0.6l3.6,4.2c0.2,0.2,0.1,0.6-0.2,0.6l-2.6,0.4c-0.2,0-0.4,0.3-0.3,0.5l1.7,5.3c0.1,0.3-0.2,0.5-0.4,0.5
				l-2.6-0.7c-0.2-0.1-0.4,0.1-0.5,0.3l-0.5,5.5c0,0.3-0.4,0.4-0.6,0.2l-1.9-1.7c-0.2-0.2-0.5-0.1-0.6,0.1l-2.5,4.9
				c-0.1,0.3-0.5,0.3-0.7,0l-1.2-2.3c-0.1-0.2-0.4-0.3-0.6-0.1l-4.2,3.6c-0.2,0.2-0.6,0.1-0.6-0.2l-0.4-2.6c0-0.2-0.3-0.4-0.5-0.3
				l-5.3,1.7c-0.3,0.1-0.5-0.2-0.5-0.4l0.7-2.6c0.1-0.2-0.1-0.4-0.3-0.5l-5.5-0.5c-0.3,0-0.4-0.4-0.2-0.6l1.7-1.9
				c0.2-0.2,0.1-0.5-0.1-0.6l-4.9-2.5c-0.3-0.1-0.3-0.5,0-0.7l2.3-1.2c0.2-0.1,0.3-0.4,0.1-0.6l-3.6-4.2c-0.2-0.2-0.1-0.6,0.2-0.6
				l2.6-0.4c0.2,0,0.4-0.3,0.3-0.5l-1.7-5.3c-0.1-0.3,0.2-0.5,0.4-0.5l2.6,0.7c0.2,0.1,0.4-0.1,0.5-0.3l0.5-5.5
				c0-0.3,0.4-0.4,0.6-0.2l1.9,1.7c0.2,0.2,0.5,0.1,0.6-0.1l2.5-4.9c0.1-0.3,0.5-0.3,0.7,0l1.2,2.3c0.1,0.2,0.4,0.3,0.6,0.1l4.2-3.6
				c0.2-0.2,0.6-0.1,0.6,0.2l0.4,2.6c0,0.2,0.3,0.4,0.5,0.3l5.3-1.7c0.3-0.1,0.5,0.2,0.5,0.4l-0.7,2.6c-0.1,0.2,0.1,0.4,0.3,0.5
				l5.5,0.5C169.5,38.1,169.7,38.5,169.5,38.7z M161.4,39.9c-5.6-2.7-12.3-0.3-15,5.4c-2.7,5.6-0.3,12.3,5.4,15
				c5.6,2.7,12.3,0.3,15-5.4C169.4,49.3,167,42.6,161.4,39.9z"/>
			<path fill="#FFFFFF" d="M163.1,39.2c-0.3-0.9-2.9-2.1-3.7-1.8c0,0-7.4,5.9-8.6,8.4c-1.5,3.1-0.1,6.8,3,8.3c3.1,1.5,6.8,0.1,8.3-3
				C163.2,48.7,163.1,39.2,163.1,39.2z M157.5,49.3c-0.3,0.7-1.1,0.9-1.8,0.6c-0.7-0.3-0.9-1.1-0.6-1.8c0.3-0.7,1.1-0.9,1.8-0.6
				C157.6,47.9,157.8,48.6,157.5,49.3z"/>
			<path fill="#FFFFFF" d="M83,42.7l-1.7,1.8c0.1,0.7,0.2,1,0.4,1.7l2.2,1c0,0.9,0,1.1,0.1,2l-2.1,1.2c-0.1,0.7-0.1,1-0.2,1.8
				l1.8,1.7c-0.2,0.9-0.3,1-0.5,1.9l-2.4,0.5c-0.3,0.7-0.4,0.9-0.7,1.6l1.2,2.1c-0.5,0.8-0.6,0.9-1.1,1.6l-2.4-0.3
				c-0.5,0.6-0.7,0.8-1.2,1.3l0.5,2.4c-0.7,0.6-0.8,0.7-1.5,1.2l-2.2-1c-0.7,0.4-0.9,0.5-1.6,0.9l-0.3,2.4c-0.8,0.3-1,0.4-1.8,0.7
				l-1.8-1.7c-0.7,0.1-1,0.2-1.7,0.4l-1,2.2c-0.9,0-1.1,0-2,0.1L61.6,68c-0.7-0.1-1-0.1-1.8-0.2l-1.7,1.8c-0.9-0.2-1-0.3-1.9-0.5
				l-0.5-2.4c-0.7-0.3-0.9-0.4-1.6-0.7l-2.1,1.2c-0.8-0.5-0.9-0.6-1.6-1.1l0.3-2.4c-0.6-0.5-0.8-0.7-1.3-1.2l-2.4,0.5
				c-0.6-0.7-0.7-0.8-1.2-1.5l1-2.2c-0.4-0.7-0.5-0.9-0.9-1.6l-2.4-0.3c-0.3-0.8-0.4-1-0.7-1.8l1.7-1.8c-0.1-0.7-0.2-1-0.4-1.7
				l-2.2-1c0-0.9,0-1.1-0.1-2l2.1-1.2c0.1-0.7,0.1-1,0.2-1.8l-1.8-1.7c0.2-0.9,0.3-1,0.5-1.9l2.4-0.5c0.3-0.7,0.4-0.9,0.7-1.6
				l-1.2-2.1c0.5-0.8,0.6-0.9,1.1-1.6l2.4,0.3c0.5-0.6,0.7-0.8,1.2-1.3l-0.5-2.4c0.7-0.6,0.8-0.7,1.5-1.2l2.2,1
				c0.7-0.4,0.9-0.5,1.6-0.9l0.3-2.4c0.8-0.3,1-0.4,1.8-0.7l1.8,1.7c0.7-0.1,1-0.2,1.7-0.4l1-2.2c0.9,0,1.1,0,2-0.1l1.2,2.1
				c0.7,0.1,1,0.1,1.8,0.2l1.7-1.8c0.9,0.2,1,0.3,1.9,0.5l0.5,2.4c0.7,0.3,0.9,0.4,1.6,0.7l2.1-1.2c0.8,0.5,0.9,0.6,1.6,1.1
				l-0.3,2.4c0.6,0.5,0.8,0.7,1.3,1.2l2.4-0.5c0.6,0.7,0.7,0.8,1.2,1.5L79,39c0.4,0.7,0.5,0.9,0.9,1.6l2.4,0.3
				C82.6,41.7,82.7,41.8,83,42.7z M64.1,46.9L76,42.5c1.1-0.4,1.5-1.7,0.9-2.6c-3.5-5.3-9.7-8.1-15.8-7.4c-1.1,0.1-1.8,1.3-1.4,2.4
				L64.1,46.9z M72.3,62.9c5.1-3.4,7.8-9.4,7.2-15.5c-0.1-1.1-1.3-1.9-2.4-1.5l-11.8,4.4L69.7,62C70.1,63.1,71.4,63.5,72.3,62.9z
				 M49.2,58.6c3.5,5.1,9.6,7.8,15.7,7c1.1-0.1,1.8-1.3,1.4-2.4L62,51.5l-11.9,4.4C49,56.3,48.6,57.6,49.2,58.6z M53.7,35.3
				c-5.3,3.5-8.1,9.7-7.2,16c0.1,1.1,1.3,1.8,2.4,1.4l12-4.5l-4.5-12.1C55.9,35,54.6,34.6,53.7,35.3z"/>
			<circle fill="#FFFFFF" cx="63.3" cy="49.1" r="10.3"/>
			<path fill="#FFFFFF" d="M125,9.5l-0.2,1.4c0.7,0.4,0.8,0.4,1.5,0.9l1.1-0.8c0.7,0.5,0.7,0.5,1.4,1l-0.4,1.3
				c0.6,0.5,0.7,0.6,1.3,1.1l1.2-0.6c0.6,0.6,0.6,0.6,1.2,1.2l-0.6,1.2c0.5,0.6,0.6,0.7,1.1,1.3l1.1-0.4c0.5,0.7,0.5,0.7,1,1.4
				l-0.7,0.9c0.4,0.7,0.5,0.7,0.9,1.4l1.1-0.2c0.4,0.8,0.4,0.8,0.8,1.6l-0.8,0.8c0.3,0.8,0.3,0.8,0.7,1.6l1.2,0
				c0.3,0.9,0.3,0.8,0.6,1.7l-0.9,0.7c0.2,0.8,0.2,0.8,0.4,1.7l1.2,0.1c0.2,0.9,0.1,0.8,0.3,1.7l-1,0.5c0.1,0.8,0.1,0.9,0.2,1.7
				l1.1,0.3c0,0.9,0,0.9,0,1.8l-1.1,0.4c-0.1,0.8-0.1,0.9-0.1,1.7l1.2,0.6c-0.1,0.9-0.1,0.8-0.2,1.7l-1.4,0.2
				c-0.2,0.8-0.2,0.9-0.4,1.7l1.1,0.8c-0.3,0.9-0.3,0.8-0.5,1.7l-1.4,0c-0.3,0.8-0.3,0.8-0.6,1.6l1,1c-0.4,0.8-0.4,0.8-0.8,1.6
				l-1.4-0.2c-0.4,0.7-0.4,0.8-0.9,1.5l0.8,1.1c-0.5,0.7-0.5,0.7-1,1.4l-1.3-0.4c-0.5,0.6-0.6,0.7-1.1,1.3l0.6,1.2
				c-0.6,0.6-0.6,0.6-1.2,1.2L130,54c-0.6,0.5-0.7,0.6-1.3,1.1l0.4,1.1c-0.7,0.5-0.7,0.5-1.4,1l-0.9-0.7c-0.7,0.4-0.7,0.5-1.4,0.9
				l0.2,1.1c-0.8,0.4-0.8,0.4-1.6,0.8l-0.8-0.8c-0.8,0.3-0.8,0.3-1.6,0.7l0,1.2c-0.9,0.3-0.8,0.3-1.7,0.6l-0.7-0.9
				c-0.8,0.2-0.8,0.2-1.7,0.4l-0.1,1.2c-0.9,0.2-0.8,0.1-1.7,0.3l-0.5-1c-0.8,0.1-0.9,0.1-1.7,0.2l-0.3,1.1c-0.9,0-0.9,0-1.8,0
				l-0.4-1.1c-0.8-0.1-0.9-0.1-1.7-0.1l-0.6,1.2c-0.9-0.1-0.8-0.1-1.7-0.2l-0.2-1.4c-0.8-0.2-0.9-0.2-1.7-0.4l-0.8,1.1
				c-0.9-0.3-0.8-0.3-1.7-0.5l0-1.4c-0.8-0.3-0.8-0.3-1.6-0.6l-1,1c-0.8-0.4-0.8-0.4-1.6-0.8l0.2-1.4c-0.7-0.4-0.8-0.4-1.5-0.9
				l-1.1,0.8c-0.7-0.5-0.7-0.5-1.4-1l0.4-1.3c-0.6-0.5-0.7-0.6-1.3-1.1l-1.2,0.6c-0.6-0.6-0.6-0.6-1.2-1.2l0.6-1.2
				c-0.5-0.6-0.6-0.7-1.1-1.3l-1.1,0.4c-0.5-0.7-0.5-0.7-1-1.4l0.7-0.9c-0.4-0.7-0.5-0.7-0.9-1.4L87.4,48c-0.4-0.8-0.4-0.8-0.8-1.6
				l0.8-0.8c-0.3-0.8-0.3-0.8-0.7-1.6l-1.2,0c-0.3-0.9-0.3-0.8-0.6-1.7l0.9-0.7c-0.2-0.8-0.2-0.8-0.4-1.7L84.4,40
				c-0.2-0.9-0.1-0.8-0.3-1.7l1-0.5C85,36.9,85,36.8,84.9,36l-1.1-0.3c0-0.9,0-0.9,0-1.8l1.1-0.4c0.1-0.8,0.1-0.9,0.1-1.7l-1.2-0.6
				c0.1-0.9,0.1-0.8,0.2-1.7l1.4-0.2c0.2-0.8,0.2-0.9,0.4-1.7l-1.1-0.8c0.3-0.9,0.3-0.8,0.5-1.7l1.4,0c0.3-0.8,0.3-0.8,0.6-1.6l-1-1
				c0.4-0.8,0.4-0.8,0.8-1.6l1.4,0.2c0.4-0.7,0.4-0.8,0.9-1.5l-0.8-1.1c0.5-0.7,0.5-0.7,1-1.4l1.3,0.4c0.5-0.6,0.6-0.7,1.1-1.3
				l-0.6-1.2c0.6-0.6,0.6-0.6,1.2-1.2l1.2,0.6c0.6-0.5,0.7-0.6,1.3-1.1l-0.4-1.1c0.7-0.5,0.7-0.5,1.4-1l0.9,0.7
				c0.7-0.4,0.7-0.5,1.4-0.9L98,9.9c0.8-0.4,0.8-0.4,1.6-0.8l0.8,0.8c0.8-0.3,0.8-0.3,1.6-0.7l0-1.2c0.9-0.3,0.8-0.3,1.7-0.6
				l0.7,0.9c0.8-0.2,0.8-0.2,1.7-0.4l0.1-1.2c0.9-0.2,0.8-0.1,1.7-0.3l0.5,1c0.8-0.1,0.9-0.1,1.7-0.2l0.3-1.1c0.9,0,0.9,0,1.8,0
				l0.4,1.1c0.8,0.1,0.9,0.1,1.7,0.1l0.6-1.2c0.9,0.1,0.8,0.1,1.7,0.2l0.2,1.4c0.8,0.2,0.9,0.2,1.7,0.4l0.8-1.1
				c0.9,0.3,0.8,0.3,1.7,0.5l0,1.4c0.8,0.3,0.8,0.3,1.6,0.6l1-1C124.2,9.1,124.2,9.1,125,9.5z M88.2,30.8c-1.2,8,1.8,16.1,8,21.5
				l7-14.1L88.2,30.8z M109.6,25.2l7-14.2c-8-1.7-16.3,0.9-22,6.8L109.6,25.2z M135.3,37.8c1.2-7.9-1.7-16-7.8-21.3l-7,14.1
				L135.3,37.8z M114.2,43.6l-6.9,14c7.9,1.5,16-1,21.6-6.8L114.2,43.6z M105.3,31.1c-1.8,3.6-0.3,7.9,3.3,9.7
				c3.6,1.8,7.9,0.3,9.7-3.3s0.3-7.9-3.3-9.7C111.4,26,107,27.5,105.3,31.1z M123.9,40.3c-0.3,0.7-0.1,1.5,0.6,1.8s1.5,0.1,1.8-0.6
				c0.3-0.7,0.1-1.5-0.6-1.8S124.2,39.6,123.9,40.3z M97.2,27.1c-0.3,0.7-0.1,1.5,0.6,1.8c0.7,0.3,1.5,0.1,1.8-0.6
				c0.3-0.7,0.1-1.5-0.6-1.8S97.5,26.4,97.2,27.1z"/>
		</g>
	</g>
	<rect x="7.6" y="75.1" fill="none" width="200.7" height="33.9"/>
	
		<text transform="matrix(1 0 0 1 31.9082 108.9551)" fill="#FFFFFF" font-family="'Amaranth-BoldItalic'" font-size="46.6401" letter-spacing="2">FOTAM</text>
	<rect x="5.3" y="118.8" fill="none" width="205.4" height="33.9"/>
	
		<text transform="matrix(1 0 0 1 17.8906 134.0319)" fill="#FFFFFF" font-family="'Amaranth-BoldItalic'" font-size="21" letter-spacing="1">[NEXT LEVEL ADS]</text>
</g>
</svg>
