<?xml version="1.0" encoding="utf-8"?>
<!-- Generator: Adobe Illustrator 18.0.0, SVG Export Plug-In . SVG Version: 6.00 Build 0)  -->
<!DOCTYPE svg PUBLIC "-//W3C//DTD SVG 1.1//EN" "http://www.w3.org/Graphics/SVG/1.1/DTD/svg11.dtd">
<svg version="1.1" id="Layer_1" xmlns="http://www.w3.org/2000/svg" xmlns:xlink="http://www.w3.org/1999/xlink" x="0px" y="0px"
	 viewBox="0 0 1024 768" enable-background="new 0 0 1024 768" xml:space="preserve">
<g>
	<g>
		<g>
			<path fill="#28221F" d="M861.4,256.8l-9.4,11c-1,1-0.6,2.5,0.6,3.3l27.5,14.2c1.5,0.8,1.5,2.9,0,3.7l-12.7,6.5
				c-1.2,0.6-1.5,2.1-0.6,3.3l20.4,23.7c1.2,1.2,0.4,3.3-1.3,3.5L871,328c-1.3,0.2-2.1,1.5-1.7,2.7l9.6,29.8c0.6,1.5-1,3.1-2.5,2.7
				l-14.4-3.8c-1.2-0.4-2.5,0.6-2.7,1.7l-2.7,31c-0.2,1.7-2.1,2.5-3.5,1.3l-11-9.4c-1-1-2.5-0.6-3.3,0.6l-14.2,27.5
				c-0.8,1.5-2.9,1.5-3.7,0l-6.5-12.7c-0.6-1.2-2.1-1.5-3.3-0.6l-23.7,20.4c-1.2,1.2-3.3,0.4-3.5-1.3l-2.1-14.8
				c-0.2-1.3-1.5-2.1-2.7-1.7l-29.8,9.6c-1.5,0.6-3.1-1-2.7-2.5l3.8-14.4c0.4-1.2-0.6-2.5-1.7-2.7l-31-2.7c-1.7-0.2-2.5-2.1-1.3-3.5
				l9.4-11c1-1,0.6-2.5-0.6-3.3l-27.5-14.2c-1.5-0.8-1.5-2.9,0-3.7l12.7-6.5c1.2-0.6,1.5-2.1,0.6-3.3l-20.4-23.7
				c-1.2-1.2-0.4-3.3,1.3-3.5l14.8-2.1c1.3-0.2,2.1-1.5,1.7-2.7l-9.6-29.8c-0.6-1.5,1-3.1,2.5-2.7l14.4,3.8c1.2,0.4,2.5-0.6,2.7-1.7
				l2.7-31c0.2-1.7,2.1-2.5,3.5-1.3l11,9.4c1,1,2.5,0.6,3.3-0.6l14.2-27.5c0.8-1.5,2.9-1.5,3.7,0l6.5,12.7c0.6,1.2,2.1,1.5,3.3,0.6
				l23.7-20.4c1.2-1.2,3.3-0.4,3.5,1.3l2.1,14.8c0.2,1.3,1.5,2.1,2.7,1.7l29.8-9.6c1.5-0.6,3.1,1,2.7,2.5l-3.8,14.4
				c-0.4,1.2,0.6,2.5,1.7,2.7l31,2.7C861.5,253.5,862.3,255.6,861.4,256.8z M815.9,263.7c-31.6-15-69.3-1.5-84.1,30
				c-15,31.6-1.5,69.3,30,84.1c31.6,15,69.3,1.5,84.1-30C860.8,316.4,847.3,278.7,815.9,263.7z"/>
			<path fill="#28221F" d="M825.6,259.8c-1.7-4.8-16-11.5-20.8-9.8c0,0-41.6,33.3-48.1,47c-8.3,17.5-0.8,38.3,16.6,46.6
				c17.5,8.3,38.3,0.8,46.6-16.6C826.1,313,825.6,259.8,825.6,259.8z M794.2,316.4c-1.7,3.7-6.2,5.2-9.8,3.5
				c-3.7-1.7-5.2-6.2-3.5-9.8c1.7-3.7,6.2-5.2,9.8-3.5C794.4,308.2,795.9,312.6,794.2,316.4z"/>
			<path fill="#28221F" d="M375.3,279.1l-9.2,10c0.8,4,1.2,5.8,1.9,9.8l12.5,5.6c0.2,5,0.2,6,0.4,11l-11.9,6.7
				c-0.6,4.2-0.8,5.8-1.2,10l10,9.2c-1.3,4.8-1.5,5.8-2.9,10.6l-13.5,2.7c-1.7,3.8-2.5,5.2-4.2,9l6.7,11.9c-2.9,4.2-3.3,5-6.2,9.2
				l-13.7-1.5c-2.9,3.1-3.8,4.2-6.7,7.3l2.7,13.5c-4,3.1-4.6,3.7-8.7,6.9l-12.5-5.8c-3.7,2.1-5,2.9-8.7,5l-1.5,13.7
				c-4.8,1.7-5.6,2.1-10.4,3.8l-10-9.2c-4,0.8-5.8,1.2-9.8,1.9l-5.6,12.5c-5,0.2-6,0.2-11,0.4l-6.7-11.9c-4.2-0.6-5.8-0.8-10-1.2
				l-9.2,10c-4.8-1.3-5.8-1.5-10.6-2.9l-2.7-13.5c-3.8-1.7-5.2-2.5-9-4.2l-11.9,6.7c-4.2-2.9-5-3.3-9.2-6.2l1.5-13.7
				c-3.1-2.9-4.2-3.8-7.3-6.7l-13.5,2.7c-3.1-4-3.7-4.6-6.9-8.7l5.8-12.5c-2.1-3.7-2.9-5-5-8.7l-13.7-1.5c-1.7-4.8-2.1-5.6-3.8-10.4
				l9.2-10c-0.8-4-1.2-5.8-1.9-9.8l-12.5-5.6c-0.2-5-0.2-6-0.4-11l11.9-6.7c0.6-4.2,0.8-5.8,1.2-10l-10-9.2
				c1.3-4.8,1.5-5.8,2.9-10.6l13.5-2.7c1.7-3.8,2.5-5.2,4.2-9l-6.7-11.9c2.9-4.2,3.3-5,6.2-9.2l13.7,1.5c2.9-3.1,3.8-4.2,6.7-7.3
				l-2.7-13.5c4-3.1,4.6-3.7,8.7-6.9l12.5,5.8c3.7-2.1,5-2.9,8.7-5l1.5-13.7c4.8-1.7,5.6-2.1,10.4-3.8l10,9.2c4-0.8,5.8-1.2,9.8-1.9
				l5.6-12.5c5-0.2,6-0.2,11-0.4l6.7,11.9c4.2,0.6,5.8,0.8,10,1.2l9.2-10c4.8,1.3,5.8,1.5,10.6,2.9l2.7,13.5c3.8,1.7,5.2,2.5,9,4.2
				l11.9-6.7c4.2,2.9,5,3.3,9.2,6.2l-1.5,13.7c3.1,2.9,4.2,3.8,7.3,6.7l13.5-2.7c3.1,4,3.7,4.6,6.9,8.7l-5.8,12.5
				c2.1,3.7,2.9,5,5,8.7l13.7,1.5C373.2,273.5,373.6,274.5,375.3,279.1z M268.9,303l67-24.6c6-2.1,8.3-9.4,4.8-14.8
				c-19.4-29.6-54.3-45.6-88.7-41.6c-6.4,0.8-10.4,7.3-8.1,13.3L268.9,303z M315.3,392.5c28.5-19.2,44.1-52.9,40.4-87.2
				c-0.8-6.4-7.3-10.4-13.3-8.3L276,321.6l24.4,66C302.6,393.8,309.9,396.1,315.3,392.5z M185.6,368.4
				c19.6,28.5,53.7,43.9,88.2,39.7c6.4-0.8,10.2-7.3,8.1-13.3l-24.6-66l-66.8,24.8C184.4,355.7,181.9,363,185.6,368.4z M210.4,237.3
				C180.7,257,165.1,292,169.8,327c0.8,6.4,7.3,10.2,13.3,8.1l67.4-25l-25.2-67.9C223.1,236.2,215.8,233.9,210.4,237.3z"/>
			<circle fill="#28221F" cx="264.7" cy="315.1" r="57.9"/>
			<path fill="#28221F" d="M611.1,92.6l-1.2,7.7c4,2.3,4.2,2.5,8.3,4.8l6.2-4.6c4,2.9,3.8,2.7,8.1,5.8l-2.3,7.3
				c3.5,2.9,3.8,3.1,7.3,6.2l6.9-3.7c3.7,3.5,3.5,3.3,6.9,6.9l-3.5,6.7c3.1,3.5,3.3,3.7,6.4,7.1l6.4-2.3c3.1,4,2.9,3.8,5.8,7.9
				l-3.8,5.2c2.5,4,2.7,4.2,5,8.1l6.5-1.2c2.3,4.4,2.1,4.2,4.6,8.7l-4.6,4.6c1.9,4.2,1.9,4.4,3.8,8.9l6.5-0.2
				c1.5,4.8,1.5,4.6,3.1,9.2l-5.4,3.8c1.2,4.6,1.2,4.8,2.3,9.2l6.5,0.8c1,5,0.8,4.6,1.7,9.6l-5.8,3.1c0.4,4.6,0.4,4.8,1,9.6l6.4,1.7
				c0.2,5,0,4.8,0.2,9.8l-6.5,2.1c-0.4,4.6-0.4,5-0.6,9.6l6.7,3.3c-0.8,5-0.6,4.8-1.3,9.8l-7.7,1.3c-1,4.4-1.2,4.8-2.1,9.2l6.4,4.4
				c-1.5,4.8-1.3,4.6-2.9,9.4h-7.7c-1.7,4.2-1.7,4.6-3.5,8.9l5.6,5.4c-2.3,4.4-2.1,4.2-4.4,8.9l-7.7-1.2c-2.3,4-2.5,4.2-4.8,8.3
				l4.6,6.2c-2.9,4-2.7,3.8-5.8,8.1l-7.3-2.3c-2.9,3.5-3.1,3.8-6.2,7.3l3.7,6.9c-3.5,3.7-3.3,3.5-6.9,6.9l-6.7-3.5
				c-3.5,3.1-3.7,3.3-7.1,6.4l2.3,6.4c-4,3.1-3.8,2.9-7.9,5.8l-5.2-3.8c-4,2.5-4.2,2.7-8.1,5l1.2,6.5c-4.4,2.3-4.2,2.1-8.7,4.6
				l-4.6-4.6c-4.2,1.9-4.4,1.9-8.9,3.8l0.2,6.5c-4.8,1.5-4.6,1.5-9.2,3.1l-3.8-5.4c-4.6,1.2-4.8,1.2-9.2,2.3l-0.8,6.5
				c-5,1-4.6,0.8-9.6,1.7l-3.1-5.8c-4.6,0.4-4.8,0.4-9.6,1l-1.7,6.4c-5,0.2-4.8,0-9.8,0.2l-2.1-6.5c-4.6-0.4-5-0.4-9.6-0.6l-3.3,6.7
				c-5-0.8-4.8-0.6-9.8-1.3l-1.3-7.7c-4.4-1-4.8-1.2-9.2-2.1l-4.4,6.4c-4.8-1.5-4.6-1.3-9.4-2.9v-7.7c-4.2-1.7-4.6-1.7-8.9-3.5
				l-5.4,5.6c-4.4-2.3-4.2-2.1-8.9-4.4l1.2-7.7c-4-2.3-4.2-2.5-8.3-4.8l-6.2,4.6c-4-2.9-3.8-2.7-8.1-5.8l2.3-7.3
				c-3.5-2.9-3.8-3.1-7.3-6.2l-6.9,3.7c-3.7-3.5-3.5-3.3-6.9-6.9l3.5-6.7c-3.1-3.5-3.3-3.7-6.4-7.1l-6.4,2.3c-3.1-4-2.9-3.8-5.8-7.9
				l3.8-5.2c-2.5-4-2.7-4.2-5-8.1l-6.5,1.2c-2.3-4.4-2.1-4.2-4.6-8.7l4.6-4.6c-1.9-4.2-1.9-4.4-3.8-8.9l-6.5,0.2
				c-1.5-4.8-1.5-4.6-3.1-9.2l5.4-3.8c-1.2-4.6-1.2-4.8-2.3-9.2l-6.5-0.8c-1-5-0.8-4.6-1.7-9.6l5.8-3.1c-0.4-4.6-0.4-4.8-1-9.6
				L380,240c-0.2-5,0-4.8-0.2-9.8l6.5-2.1c0.4-4.6,0.4-5,0.6-9.6l-6.7-3.3c0.8-5,0.6-4.8,1.3-9.8l7.7-1.3c1-4.4,1.2-4.8,2.1-9.2
				l-6.4-4.4c1.5-4.8,1.3-4.6,2.9-9.4h7.7c1.7-4.2,1.7-4.6,3.5-8.9l-5.6-5.4c2.3-4.4,2.1-4.2,4.4-8.9l7.7,1.2c2.3-4,2.5-4.2,4.8-8.3
				l-4.6-6.2c2.9-4,2.7-3.8,5.8-8.1l7.3,2.3c2.9-3.5,3.1-3.8,6.2-7.3l-3.7-6.9c3.5-3.7,3.3-3.5,6.9-6.9l6.7,3.5
				c3.5-3.1,3.7-3.3,7.1-6.4l-2.3-6.4c4-3.1,3.8-2.9,7.9-5.8l5.2,3.8c4-2.5,4.2-2.7,8.1-5l-1.2-6.5c4.4-2.3,4.2-2.1,8.7-4.6l4.6,4.6
				c4.2-1.9,4.4-1.9,8.9-3.8l-0.2-6.5c4.8-1.5,4.6-1.5,9.2-3.1l3.8,5.4c4.6-1.2,4.8-1.2,9.2-2.3l0.8-6.5c5-1,4.6-0.8,9.6-1.7
				l3.1,5.8c4.6-0.4,4.8-0.4,9.6-1l1.7-6.4c5-0.2,4.8,0,9.8-0.2l2.1,6.5c4.6,0.4,5,0.4,9.6,0.6l3.3-6.7c5,0.8,4.8,0.6,9.8,1.3
				l1.3,7.7c4.4,1,4.8,1.2,9.2,2.1l4.4-6.4c4.8,1.5,4.6,1.3,9.4,2.9v7.7c4.2,1.7,4.6,1.7,8.9,3.5l5.4-5.6
				C606.9,90.5,606.7,90.3,611.1,92.6z M404.8,212.5c-6.5,44.7,10,90.7,45,120.7l39.1-79.3L404.8,212.5z M524.9,180.7l39.3-79.7
				c-45.2-9.4-91.6,5-123.4,38.1L524.9,180.7z M669.3,251.8c6.7-44.7-9.8-89.9-43.7-119.9L586.5,211L669.3,251.8z M550.5,284.3
				l-38.9,78.9c44.3,8.7,90.1-5.8,121.5-38.1L550.5,284.3z M500.6,214c-10,20.2-1.7,44.5,18.5,54.5c20.2,10,44.5,1.7,54.5-18.5
				c10-20.2,1.7-44.5-18.5-54.5C534.9,185.6,510.5,193.8,500.6,214z M605.2,265.6c-1.9,3.8-0.4,8.5,3.5,10.4s8.5,0.4,10.4-3.5
				c1.9-3.8,0.4-8.5-3.5-10.4S607.1,261.8,605.2,265.6z M455,191.5c-1.9,3.8-0.4,8.5,3.5,10.4c3.8,1.9,8.5,0.4,10.4-3.5
				c1.9-3.8,0.4-8.5-3.5-10.4C461.6,186.1,456.8,187.7,455,191.5z"/>
		</g>
	</g>
	<rect x="64.3" y="461.6" fill="none" width="903.3" height="190.6"/>
	<g enable-background="new    ">
		<path fill="#28221F" d="M124.1,476.2h109l-7.1,31.7h-65.5l-7.6,38.3h54l-6.8,31.7h-53.2l-14.4,73.7H90L124.1,476.2z"/>
		<path fill="#28221F" d="M387.3,532.9c0,61.9-30.9,122.7-97.5,122.7c-43,0-60.8-22.5-60.8-60.3c0-62.1,30.9-122.1,97.2-122.1
			C369.2,473.1,387.3,494.9,387.3,532.9z M274.6,590.5c0,18.1,5.5,32.5,23.9,32.5c30.1,0,43.5-50.9,43.5-86
			c0-17.8-5.8-31.5-23.9-31.5C287.9,505.6,274.6,555.7,274.6,590.5z"/>
		<path fill="#28221F" d="M413.2,476.2h130.5L537,508h-41.2L468,651.6h-42.7L452.8,508h-39.6V476.2z"/>
		<path fill="#28221F" d="M594.1,476.2h36.2l33.6,175.4h-43.5l-6.6-41.9h-51.4l-22.5,44l-41.4-7.1L594.1,476.2z M602.2,530.2
			l-23.9,47.7h30.4C605.9,560.1,603.8,542,602.2,530.2z"/>
		<path fill="#28221F" d="M843.6,584.8c1-6.6,3.7-21,6.3-32.5c-6,11.5-13.4,26.2-16.5,31.7l-38.5,67.6h-33.3L749,584.8
			c-1-5.5-3.7-20.4-5.2-31.5c-1.6,11.3-3.4,25.7-4.5,30.7l-12.6,68.4l-42.2-6.3l41.9-169.9h36.7l19.4,108.3c0.8,4.7,2.4,14.7,3.1,21
			c3.1-6.3,7.6-16,10.5-21l61.3-108.3H894l-19.7,175.4h-43L843.6,584.8z"/>
	</g>
</g>
</svg>
