<?xml version="1.0" encoding="utf-8"?>
<!-- Generator: Adobe Illustrator 18.0.0, SVG Export Plug-In . SVG Version: 6.00 Build 0)  -->
<!DOCTYPE svg PUBLIC "-//W3C//DTD SVG 1.1//EN" "http://www.w3.org/Graphics/SVG/1.1/DTD/svg11.dtd">
<svg version="1.1" id="Layer_1" xmlns="http://www.w3.org/2000/svg" xmlns:xlink="http://www.w3.org/1999/xlink" x="0px" y="0px"
	 viewBox="0 474 1024 294" enable-background="new 0 474 1024 294" xml:space="preserve">
<g>
	<g>
		<g>
			<path fill="#FFFFFF" d="M420.4,634.8l-5,5.8c-0.4,0.6-0.4,1.3,0.4,1.7l14.6,7.5c0.8,0.4,0.8,1.5,0,1.9l-6.7,3.5
				c-0.6,0.4-0.8,1.2-0.4,1.7l10.7,12.5c0.6,0.6,0.2,1.7-0.8,1.7l-7.9,1.2c-0.8,0-1.2,0.8-1,1.3l5,15.8c0.2,0.8-0.6,1.5-1.3,1.3
				l-7.7-2.1c-0.6-0.2-1.3,0.2-1.3,1l-1.5,16.4c0,1-1.2,1.3-1.7,0.8l-5.8-5c-0.6-0.4-1.3-0.4-1.7,0.4l-7.5,14.6
				c-0.4,0.8-1.5,0.8-1.9,0l-3.5-6.7c-0.4-0.6-1.2-0.8-1.7-0.4l-12.6,10.7c-0.6,0.6-1.7,0.2-1.7-0.8l-1.2-7.9c0-0.8-0.8-1.2-1.3-1
				l-15.8,5c-0.8,0.2-1.5-0.6-1.3-1.3l2.1-7.7c0.2-0.6-0.2-1.3-1-1.3l-16.4-1.5c-1,0-1.3-1.2-0.8-1.7l5-5.8c0.4-0.6,0.4-1.3-0.4-1.7
				l-14.6-7.5c-0.8-0.4-0.8-1.5,0-1.9l6.7-3.5c0.6-0.4,0.8-1.2,0.4-1.7L330,667.6c-0.6-0.6-0.2-1.7,0.8-1.7l7.9-1.2
				c0.8,0,1.2-0.8,1-1.3l-5-15.8c-0.2-0.8,0.6-1.5,1.3-1.3l7.7,2.1c0.6,0.2,1.3-0.2,1.3-1l1.5-16.4c0-1,1.2-1.3,1.7-0.8l5.8,5
				c0.6,0.4,1.3,0.4,1.7-0.4l7.5-14.6c0.4-0.8,1.5-0.8,1.9,0l3.5,6.7c0.4,0.6,1.2,0.8,1.7,0.4l12.5-10.8c0.6-0.6,1.7-0.2,1.7,0.8
				l1.2,7.9c0,0.8,0.8,1.2,1.3,1l15.8-5c0.8-0.2,1.5,0.6,1.3,1.3l-2.1,7.7c-0.2,0.6,0.2,1.3,1,1.3l16.4,1.5
				C420.6,633,421,634.2,420.4,634.8z M396.3,638.4c-16.7-7.9-36.8-0.8-44.7,16c-7.9,16.7-0.8,36.8,16,44.7
				c16.7,7.9,36.8,0.8,44.7-16S412.9,646.5,396.3,638.4z"/>
			<path fill="#FFFFFF" d="M401.3,636.3c-1-2.5-8.5-6.2-11.2-5.2c0,0-22.1,17.7-25.6,25c-4.4,9.2-0.4,20.2,8.9,24.6
				c9.2,4.4,20.2,0.4,24.6-8.9C401.7,664.6,401.3,636.3,401.3,636.3z M384.8,666.3c-1,1.9-3.3,2.9-5.2,1.9s-2.9-3.3-1.9-5.2
				s3.3-2.9,5.2-1.9C384.8,662.1,385.7,664.4,384.8,666.3z"/>
			<path fill="#FFFFFF" d="M162.5,646.7l-5,5.4c0.4,2.1,0.6,3.1,1,5.2l6.5,3.1c0.2,2.7,0.2,3.1,0.2,5.8l-6.4,3.5
				c-0.2,2.3-0.4,3.1-0.6,5.2l5.4,5c-0.8,2.5-0.8,3.1-1.5,5.6l-7.1,1.3c-1,2.1-1.3,2.9-2.3,4.8l3.7,6.4c-1.5,2.3-1.7,2.7-3.3,4.8
				l-7.3-0.8c-1.5,1.7-2.1,2.3-3.7,3.8l1.3,7.1c-2.1,1.7-2.5,1.9-4.6,3.7l-6.5-3.1c-1.9,1.2-2.7,1.5-4.6,2.7l-0.8,7.3
				c-2.5,1-2.9,1.2-5.6,2.1l-5.4-5c-2.1,0.4-3.1,0.6-5.2,1l-3.1,6.5c-2.7,0.2-3.1,0.2-5.8,0.2l-3.5-6.4c-2.3-0.2-3.1-0.4-5.2-0.6
				l-5,5.4c-2.5-0.8-3.1-0.8-5.6-1.5l-1.3-7.1c-2.1-1-2.9-1.3-4.8-2.3l-6.4,3.7c-2.3-1.5-2.7-1.7-4.8-3.3l0.8-7.3
				c-1.7-1.5-2.3-2.1-3.8-3.7l-7.1,1.3c-1.7-2.1-1.9-2.5-3.7-4.6l3.1-6.5c-1.2-1.9-1.5-2.7-2.7-4.6l-7.3-0.8c-1-2.5-1.2-2.9-2.1-5.6
				l5-5.4c-0.4-2.1-0.6-3.1-1-5.2l-6.5-3.1c-0.2-2.7-0.2-3.1-0.2-5.8l6.5-3.1c0.2-2.3,0.4-3.1,0.6-5.2l-5.4-5
				c0.8-2.5,0.8-3.1,1.5-5.6l7.1-1.3c1-2.1,1.3-2.9,2.3-4.8l-3.7-6.4c1.5-2.3,1.7-2.7,3.3-4.8l7.3,0.8c1.5-1.7,2.1-2.3,3.7-3.8
				l-1.3-7.1c2.1-1.7,2.5-1.9,4.6-3.7l6.5,3.1c1.9-1.2,2.7-1.5,4.6-2.7l0.8-7.3c2.5-1,2.9-1.2,5.6-2.1l5.4,5c2.1-0.4,3.1-0.6,5.2-1
				l3.1-6.5c2.7-0.2,3.1-0.2,5.8-0.2l3.5,6.4c2.3,0.2,3.1,0.4,5.2,0.6l5-5.4c2.5,0.8,3.1,0.8,5.6,1.5l1.3,7.1c2.1,1,2.9,1.3,4.8,2.3
				l6.4-3.7c2.3,1.5,2.7,1.7,4.8,3.3l-0.8,7.3c1.7,1.5,2.3,2.1,3.8,3.7l7.1-1.3c1.7,2.1,1.9,2.5,3.7,4.6l-3.1,6.5
				c1.2,1.9,1.5,2.7,2.7,4.6l7.3,0.8C161.5,643.6,161.5,644.2,162.5,646.7z M106.1,659.4l35.4-13.1c3.3-1.2,4.4-5,2.5-7.9
				c-10.4-15.8-28.9-24.3-47.2-21.9c-3.5,0.4-5.6,3.8-4.2,7.1L106.1,659.4z M130.7,706.7c15-10.2,23.3-28.1,21.4-46.2
				c-0.4-3.5-3.8-5.6-7.1-4.4l-35.2,13.1l13.1,35C124,707.5,127.8,708.7,130.7,706.7z M61.8,694c10.4,15,28.5,23.3,46.8,21
				c3.3-0.4,5.4-3.8,4.2-7.1l-13.1-35L64.3,686C61.2,687.3,59.9,691.2,61.8,694z M75.1,624.6c-15.8,10.3-24.1,28.8-21.6,47.5
				c0.4,3.3,3.8,5.4,7.1,4.2L96.4,663l-13.5-36C81.6,623.8,77.8,622.6,75.1,624.6z"/>
			<circle fill="#FFFFFF" cx="103.7" cy="665.7" r="30.8"/>
			<path fill="#FFFFFF" d="M287.6,547.6l-0.6,4c2.1,1.3,2.3,1.3,4.4,2.5l3.3-2.5c2.1,1.5,2.1,1.5,4.2,3.1l-1.2,3.8
				c1.9,1.5,1.9,1.7,3.8,3.3l3.7-1.9c1.9,1.9,1.7,1.7,3.7,3.7l-1.7,3.5c1.5,1.9,1.7,1.9,3.3,3.8l3.5-1.2c1.5,2.1,1.5,2.1,3.1,4.2
				l-2.1,2.9c1.3,2.1,1.3,2.1,2.7,4.2l3.5-0.6c1.2,2.3,1.2,2.3,2.5,4.6l-2.5,2.5c1,2.3,1,2.3,1.9,4.6l3.5-0.2c1,2.5,0.8,2.3,1.7,5
				l-2.9,2.1c0.6,2.3,0.6,2.5,1.3,5l3.5,0.4c0.4,2.7,0.4,2.5,1,5.2l-3.1,1.5c0.2,2.5,0.2,2.5,0.6,5l3.3,1c0,2.7,0,2.5,0.2,5.2
				l-3.5,1.2c-0.2,2.5-0.2,2.7-0.4,5l3.7,1.7c-0.4,2.7-0.4,2.5-0.8,5.2l-4,0.8c-0.6,2.3-0.6,2.5-1.2,5l3.5,2.3
				c-0.8,2.5-0.8,2.5-1.5,5h-4c-1,2.3-1,2.5-1.9,4.6l2.9,2.9c-1.2,2.3-1.2,2.3-2.3,4.6l-4-0.6c-1.3,2.1-1.3,2.3-2.5,4.4l2.5,3.3
				c-1.5,2.1-1.5,2.1-3.1,4.2l-3.8-1.2c-1.5,1.9-1.7,1.9-3.3,3.8l1.9,3.7c-1.9,1.9-1.7,1.7-3.7,3.7l-3.7-1.5
				c-1.9,1.5-1.9,1.7-3.8,3.3l1.2,3.5c-2.1,1.5-2.1,1.5-4.2,3.1l-2.9-2.1c-2.1,1.3-2.1,1.3-4.2,2.7l0.6,3.5
				c-2.3,1.2-2.3,1.2-4.6,2.5l-2.5-2.5c-2.3,1-2.3,1-4.6,1.9l0.2,3.5c-2.5,1-2.3,0.8-5,1.7l-2.1-2.9c-2.3,0.6-2.5,0.6-5,1.3
				l-0.4,3.5c-2.7,0.4-2.5,0.4-5.2,1l-1.5-3.1c-2.5,0.2-2.5,0.2-5,0.6l-1,3.3c-2.7,0-2.5,0-5.2,0.2l-1.2-3.5c-2.5-0.2-2.7-0.2-5-0.4
				l-1.7,3.7c-2.7-0.4-2.5-0.4-5.2-0.8l-0.8-4c-2.3-0.6-2.5-0.6-5-1.2l-2.3,3.5c-2.5-0.8-2.5-0.8-5-1.5v-4c-2.3-1-2.5-1-4.6-1.9
				l-2.9,2.9c-2.3-1.2-2.3-1.2-4.6-2.3l0.6-4c-2.1-1.3-2.3-1.3-4.4-2.5l-3.3,2.5c-2.1-1.5-2.1-1.5-4.2-3.1l1.2-3.8
				c-1.9-1.5-1.9-1.7-3.8-3.3l-3.7,1.9c-1.9-1.9-1.7-1.7-3.7-3.7l1.7-3.5c-1.5-1.9-1.7-1.9-3.3-3.8l-3.5,1.2
				c-1.5-2.1-1.5-2.1-3.1-4.2l2.1-2.9c-1.3-2.1-1.3-2.1-2.7-4.2l-3.5,0.6c-1.2-2.3-1.2-2.3-2.5-4.6l2.5-2.5c-1-2.3-1-2.3-1.9-4.6
				l-3.5,0.2c-1-2.5-0.8-2.3-1.7-5l2.9-2.1c-0.6-2.3-0.6-2.5-1.3-5l-3.5-0.4c-0.4-2.7-0.4-2.5-1-5.2l3.1-1.5c-0.2-2.5-0.2-2.5-0.6-5
				l-3.3-1c0-2.7,0-2.5-0.2-5.2l3.5-1.2c0.2-2.5,0.2-2.7,0.4-5l-3.7-1.7c0.4-2.7,0.4-2.5,0.8-5.2l4-0.8c0.6-2.3,0.6-2.5,1.2-5
				l-3.5-2.3c0.8-2.5,0.8-2.5,1.5-5h4c1-2.3,1-2.5,1.9-4.6l-2.9-2.9c1.2-2.3,1.2-2.3,2.3-4.6l4,0.6c1.3-2.1,1.3-2.3,2.5-4.4
				l-2.5-3.3c1.5-2.1,1.5-2.1,3.1-4.2l3.8,1.2c1.5-1.9,1.7-1.9,3.3-3.8l-1.9-3.7c1.9-1.9,1.7-1.7,3.7-3.7l3.5,1.7
				c1.9-1.5,1.9-1.7,3.8-3.3l-1.2-3.5c2.1-1.5,2.1-1.5,4.2-3.1l2.9,2.1c2.1-1.3,2.1-1.3,4.2-2.7l-0.6-3.5c2.3-1.2,2.3-1.2,4.6-2.5
				l2.5,2.5c2.3-1,2.3-1,4.6-1.9l-0.2-3.5c2.5-1,2.3-0.8,5-1.7l2.1,2.9c2.3-0.6,2.5-0.6,5-1.3l0.4-3.5c2.7-0.4,2.5-0.4,5.2-1
				l1.5,3.1c2.5-0.2,2.5-0.2,5-0.6l1-3.3c2.7,0,2.5,0,5.2-0.2l1.2,3.5c2.5,0.2,2.7,0.2,5,0.4l1.7-3.7c2.7,0.4,2.5,0.4,5.2,0.8l0.8,4
				c2.3,0.6,2.5,0.6,5,1.2l2.3-3.5c2.5,0.8,2.5,0.8,5,1.5v4c2.3,1,2.5,1,4.6,1.9l2.9-2.9C285.4,546.6,285.3,546.4,287.6,547.6z
				 M178,611.3c-3.5,23.7,5.2,48.1,23.9,64.1l20.8-42.2L178,611.3z M241.9,594.3l20.8-42.2c-23.9-5-48.5,2.7-65.4,20.2L241.9,594.3z
				 M318.4,632.1c3.7-23.7-5.2-47.7-23.1-63.7l-20.8,42L318.4,632.1z M255.4,649.4l-20.6,42c23.5,4.6,47.7-3.1,64.5-20.2
				L255.4,649.4z M228.9,612c-5.2,10.8-1,23.7,9.8,28.9c10.8,5.2,23.7,1,28.9-9.8s1-23.7-9.8-28.9C247.1,597,234.2,601.5,228.9,612z
				 M284.5,639.4c-1,2.1-0.2,4.4,1.9,5.6c2.1,1,4.4,0.2,5.6-1.9s0.2-4.4-1.9-5.6C288,636.3,285.4,637.5,284.5,639.4z M204.8,600.1
				c-1,2.1-0.2,4.4,1.9,5.6c2.1,1.2,4.4,0.2,5.6-1.9c1-2.1,0.2-4.4-1.9-5.6C208.3,597.2,205.8,598.2,204.8,600.1z"/>
		</g>
	</g>
	<g enable-background="new    ">
		<path fill="#FFFFFF" d="M502.1,603.6h63.2l-4.1,18.4h-38l-4.4,22.2h31.3l-4,18.4h-30.8l-8.4,42.7h-24.6L502.1,603.6z"/>
		<path fill="#FFFFFF" d="M653.7,636.4c0,35.9-17.9,71.1-56.5,71.1c-24.9,0-35.2-13.1-35.2-34.9c0-36,17.9-70.8,56.4-70.8
			C643.3,601.8,653.7,614.4,653.7,636.4z M588.4,669.9c0,10.5,3.2,18.8,13.8,18.8c17.5,0,25.2-29.5,25.2-49.8
			c0-10.3-3.3-18.2-13.8-18.2C596.2,620.6,588.4,649.7,588.4,669.9z"/>
		<path fill="#FFFFFF" d="M667.9,603.6h75.7l-4,18.4h-23.9l-16.1,83.2h-24.8l16-83.2h-22.9V603.6z"/>
		<path fill="#FFFFFF" d="M771.8,603.6h21l19.4,101.6H787l-3.8-24.3h-29.8l-13.1,25.5l-24-4.1L771.8,603.6z M776.5,634.9l-13.8,27.6
			h17.6C778.6,652.2,777.4,641.8,776.5,634.9z"/>
		<path fill="#FFFFFF" d="M915.5,666.5c0.6-3.8,2.1-12.2,3.6-18.8c-3.5,6.7-7.7,15.2-9.6,18.4l-22.3,39.2h-19.3l-7.3-38.7
			c-0.6-3.2-2.1-11.8-3-18.2c-0.9,6.5-2,14.9-2.6,17.8l-7.3,39.7l-24.5-3.6l24.3-98.4h21.3l11.2,62.7c0.5,2.7,1.4,8.5,1.8,12.2
			c1.8-3.6,4.4-9.3,6.1-12.2l35.5-62.7h21.1l-11.4,101.6h-24.9L915.5,666.5z"/>
	</g>
</g>
</svg>
