<?xml version="1.0" encoding="utf-8"?>
<!-- Generator: Adobe Illustrator 18.0.0, SVG Export Plug-In . SVG Version: 6.00 Build 0)  -->
<!DOCTYPE svg PUBLIC "-//W3C//DTD SVG 1.1//EN" "http://www.w3.org/Graphics/SVG/1.1/DTD/svg11.dtd">
<svg version="1.1" id="Layer_1" xmlns="http://www.w3.org/2000/svg" xmlns:xlink="http://www.w3.org/1999/xlink" x="0px" y="0px"
	 viewBox="0 0 56 57.4" enable-background="new 0 0 56 57.4" xml:space="preserve">
<g>
	<g>
		<g>
			<g>
				<circle fill="none" stroke="#FFFFFF" stroke-width="4" stroke-miterlimit="10" cx="28.5" cy="27.7" r="25.3"/>
			</g>
			<path fill="#FFFFFF" d="M50.7,27.7c0,12.2-9.9,22.1-22.1,22.1S6.4,39.9,6.4,27.7S16.3,5.5,28.5,5.5S50.7,15.4,50.7,27.7z
				 M27,41.2h3V38c4-0.5,5.8-2.9,5.8-6.4c0-4-3.2-5.4-6.1-6.4H30v-5.5c1,0,0.9,0.1,1.3,0.2c0.6,0.2,0.7,0.4,0.7,1v1.8l3-0.2v-4.7
				c-1-0.8-3-1.2-5-1.3v-3.5h-3v3.5c-3,0.5-5.8,2.7-5.8,6c0,3.8,3.8,5.1,5.8,6v6.2c0,0-1.1-0.1-1.5-0.3c-0.6-0.2-0.5-0.4-0.5-1v-1.9
				l-3,0.2v4.9c1,0.8,3,1.2,5,1.3V41.2z M25.3,22.4c0-1.3,0.7-2.1,1.7-2.4v4.8C26,24.2,25.3,23.6,25.3,22.4z M31.9,31.9
				c0,1.6-0.9,2.4-1.9,2.7v-5.2C31,30,31.9,30.7,31.9,31.9z"/>
		</g>
		<path opacity="0.1" d="M46.9,46.4c-10.2,10.2-26.9,10.2-37.1,0s-10.2-26.9,0-37.1"/>
	</g>
</g>
</svg>
