<?xml version="1.0" encoding="utf-8"?>
<!-- Generator: Adobe Illustrator 18.0.0, SVG Export Plug-In . SVG Version: 6.00 Build 0)  -->
<!DOCTYPE svg PUBLIC "-//W3C//DTD SVG 1.1//EN" "http://www.w3.org/Graphics/SVG/1.1/DTD/svg11.dtd">
<svg version="1.1" id="Layer_1" xmlns="http://www.w3.org/2000/svg" xmlns:xlink="http://www.w3.org/1999/xlink" x="0px" y="0px"
	 viewBox="0 0 50 50" enable-background="new 0 0 50 50" xml:space="preserve">
<path fill="#1665C4" d="M28.9,46.3V27.9H24v-6.6h4.9c0,0,0-2.7,0-5.7c0-4.5,2.9-8.5,9.5-8.5c2.7,0,4.7,0.3,4.7,0.3L43,13.5
	c0,0-2,0-4.2,0c-2.4,0-2.8,1.1-2.8,2.9c0,1.4,0-3.1,0,4.8h7.2l-0.3,6.6H36v18.4h-7v0.1H28.9z M50.2-0.1h-50v50h50V-0.1z"/>
</svg>
