<?xml version="1.0" encoding="utf-8"?>
<!-- Generator: Adobe Illustrator 18.0.0, SVG Export Plug-In . SVG Version: 6.00 Build 0)  -->
<!DOCTYPE svg PUBLIC "-//W3C//DTD SVG 1.1//EN" "http://www.w3.org/Graphics/SVG/1.1/DTD/svg11.dtd">
<svg version="1.1" id="Layer_1" xmlns="http://www.w3.org/2000/svg" xmlns:xlink="http://www.w3.org/1999/xlink" x="0px" y="0px"
	 viewBox="0 0 50 50" enable-background="new 0 0 50 50" xml:space="preserve">
<path fill="#1665C4" d="M50,50H0V0h50V50z M7.9,19.5v22.1h7.4V19.5H7.9L7.9,19.5z M34.5,30.2v11.3h7.4V29.1c0-4.8-1.5-10.2-8.6-10.2
	c-3.3,0-5.2,1.4-6.6,3.4v-2.8h-7.4v22.1h7.4V29.4c0-3.2,2-4.7,4-4.7C33.1,24.7,34.5,26.5,34.5,30.2L34.5,30.2z M11.7,8.6
	c-2.3,0-4.2,1.7-4.2,3.9s1.9,3.9,4.2,3.9s4.2-1.7,4.2-3.9C15.8,10.4,14,8.6,11.7,8.6L11.7,8.6z"/>
</svg>
