<?xml version="1.0" encoding="utf-8"?>
<!-- Generator: Adobe Illustrator 18.0.0, SVG Export Plug-In . SVG Version: 6.00 Build 0)  -->
<!DOCTYPE svg PUBLIC "-//W3C//DTD SVG 1.1//EN" "http://www.w3.org/Graphics/SVG/1.1/DTD/svg11.dtd">
<svg version="1.1" id="Layer_1" xmlns="http://www.w3.org/2000/svg" xmlns:xlink="http://www.w3.org/1999/xlink" x="0px" y="0px"
	 viewBox="0 0 50 50" enable-background="new 0 0 50 50" xml:space="preserve">
<path fill="#1665C4" d="M41.3,16.7c0,0.4,0,0.7,0,1.1c0,10.9-8.3,23.6-23.6,23.6c-4.7,0-9-1.4-12.7-3.8c0.6,0.1,1.3,0.1,2,0.1
	c3.9,0,7.4-1.3,10.3-3.6c-3.7-0.1-6.6-2.4-7.7-5.7c0.5,0.1,1,0.1,1.5,0.1c0.7,0,1.5-0.1,2.2-0.3c-3.8-0.8-6.6-4.2-6.6-8.1V20
	c1.1,0.6,2.4,1,3.8,1c-2-1.4-3.5-4-3.5-6.7c0-1.5,0.4-3,1.1-4.2c4.1,5,10.2,8.3,17,8.6c-0.1-0.6-0.2-1.2-0.2-1.9
	c0-4.6,3.8-8.3,8.3-8.3c2.4,0,4.6,1,6,2.7c1.9-0.4,3.7-1,5.2-2c-0.6,1.9-1.9,3.6-3.7,4.6c1.7-0.2,3.3-0.6,4.8-1.3
	C44.4,14.1,43,15.5,41.3,16.7z M50.5-0.3H0v50.5h50.5V-0.3z"/>
</svg>
